<?xml version="1.0" encoding="UTF-8" standalone="no"?>
<!DOCTYPE svg PUBLIC "-//W3C//DTD SVG 1.1//EN" "http://www.w3.org/Graphics/SVG/1.1/DTD/svg11.dtd">
<svg width="100%" height="100%" viewBox="0 0 256 256" version="1.1" xmlns="http://www.w3.org/2000/svg" xmlns:xlink="http://www.w3.org/1999/xlink" xml:space="preserve" xmlns:serif="http://www.serif.com/" style="fill-rule:evenodd;clip-rule:evenodd;stroke-linejoin:round;stroke-miterlimit:2;">
    <path d="M23.349,258.888l0.451,-0.171l0.451,-0.174l0.451,-0.176l0.451,-0.179l0.451,-0.181l0.452,-0.183l0.451,-0.185l0.451,-0.188l0.451,-0.191l0.451,-0.193l0.451,-0.195l0.451,-0.198l0.451,-0.201l0.451,-0.203l0.451,-0.206l0.451,-0.209l0.451,-0.211l0.452,-0.214l0.451,-0.217l0.451,-0.22l0.451,-0.222l0.451,-0.226l0.451,-0.228l0.451,-0.232l0.451,-0.234l0.451,-0.238l0.451,-0.241l0.451,-0.244l0.451,-0.247l0.452,-0.25l0.451,-0.253l0.451,-0.257l0.451,-0.261l0.451,-0.263l0.451,-0.267l0.451,-0.271l0.451,-0.274l0.451,-0.278l0.451,-0.281l0.451,-0.285l0.451,-0.289l0.451,-0.293l0.452,-0.296l0.451,-0.301l0.451,-0.304l0.451,-0.308l0.451,-0.312l0.451,-0.317l0.451,-0.32l0.451,-0.325l0.451,-0.329l0.451,-0.333l0.451,-0.338l0.451,-0.342l0.452,-0.346l0.451,-0.352l0.451,-0.355l0.451,-0.361l0.451,-0.365l0.451,-0.369l0.451,-0.375l0.451,-0.38l0.451,-0.384l0.451,-0.39l0.451,-0.395l0.451,-0.4l0.452,-0.405l0.451,-0.41l0.451,-0.416l0.451,-0.421l0.451,-0.427l0.451,-0.432l0.451,-0.438l0.451,-0.444l0.451,-0.45l0.451,-0.455l0.451,-0.462l0.451,-0.467l0.452,-0.474l0.451,-0.479l0.451,-0.486l0.451,-0.493l0.451,-0.499l0.451,-0.505l0.451,-0.512l0.451,-0.519l0.451,-0.526l0.451,-0.532l0.451,-0.54l0.451,-0.546l0.451,-0.554l0.452,-0.561l0.451,-0.568l0.451,-0.576l0.451,-0.583l0.451,-0.591l0.451,-0.598l0.451,-0.607l0.451,-0.614l0.451,-0.623l0.451,-0.63l0.451,-0.639l0.451,-0.647l0.452,-0.656l0.451,-0.664l0.451,-0.673l0.451,-0.682l0.451,-0.691l0.451,-0.7l0.451,-0.709l0.451,-0.718l0.451,-0.728l0.451,-0.737l0.451,-0.747l0.451,-0.756l0.452,-0.767l0.451,-0.776l0.451,-0.787l0.451,-0.797l0.451,-0.808l0.451,-0.818l0.451,-0.829l0.451,-0.839l0.451,-0.851l0.451,-0.862l0.451,-0.873l0.451,-0.885l0.452,-0.896l0.451,-0.908l0.451,-0.919l0.451,-0.932l0.451,-0.944l0.451,-0.956l0.451,-0.969l0.451,-0.982l0.451,-0.994l0.451,-1.008l0.451,-1.021l0.451,-1.034l0.451,-1.047l0.452,-1.062l0.451,-1.075l0.451,-1.089l0.451,-1.104l0.451,-1.118l0.451,-1.132l0.451,-1.148l0.451,-1.162l0.451,-1.178l0.451,-1.193l0.451,-1.209l0.451,-1.225l0.452,-1.241l0.451,-1.257l0.451,-1.273l0.451,-1.29l0.451,-1.307l0.451,-1.324l0.451,-1.342l0.451,-1.359l0.451,-1.377l0.451,-1.395l0.451,-1.413l0.451,-1.432l0.452,-1.45l0.451,-1.469l0.451,-1.489l0.451,-1.508l0.451,-1.528l0.451,-1.548l0.451,-1.569l0.451,-1.588l0.451,-1.61l0.451,-1.631l0.451,-1.652l0.451,-1.673l0.452,-1.696l0.451,-1.718l0.451,-1.74l0.451,-1.763l0.451,-1.786l0.451,-1.81l0.451,-1.833l0.451,-1.858l0.451,-1.881l0.451,-1.907l0.451,-1.931l0.451,-1.957l0.451,-1.982l0.452,-2.008l0.451,-2.035l0.451,-2.061l0.451,-2.088l0.451,-2.115l0.451,-2.144l0.451,-2.171l0.451,-2.2l0.451,-2.228l0.451,-2.258l0.451,-2.287l0.451,-2.318l0.452,-2.347l0.451,-2.379l0.451,-2.409l0.451,-2.441l0.451,-2.473l0.451,-2.506l0.451,-2.538l0.451,-2.572l0.451,-2.605l0.451,-2.639l0.451,-2.674l0.451,-2.709l0.452,-2.745l0.451,-2.78l0.451,-2.817l0.451,-2.854l0.451,-2.891l0.451,-2.929l0.451,-2.967l0.451,-3.006l0.451,-3.046l0.451,-3.086l0.451,-3.126l0.451,-3.166l0.452,-3.209l0.451,-3.25l0.451,-3.293l0.451,-3.336l0.451,-3.38l0.451,-3.424l0.451,-1.178l0.451,3.439l0.451,3.395l0.451,3.351l0.451,3.308l0.451,3.265l0.451,3.222l0.452,3.181l0.451,3.14l0.451,3.099l0.451,3.059l0.451,3.02l0.451,2.981l0.451,2.942l0.451,2.904l0.451,2.866l0.451,2.83l0.451,2.792l0.451,2.757l0.452,2.721l0.451,2.686l0.451,2.651l0.451,2.617l0.451,2.583l0.451,2.549l0.451,2.517l0.451,2.484l0.451,2.452l0.451,2.42l0.451,2.389l0.451,2.358l0.452,2.328l0.451,2.298l0.451,2.267l0.451,2.239l0.451,2.209l0.451,2.181l0.451,2.153l0.451,2.125l0.451,2.097l0.451,2.071l0.451,2.043l0.451,2.017l0.452,1.991l0.451,1.966l0.451,1.94l0.451,1.914l0.451,1.89l0.451,1.866l0.451,1.842l0.451,1.817l0.451,1.794l0.451,1.771l0.451,1.748l0.451,1.726l0.451,1.703l0.452,1.681l0.451,1.66l0.451,1.637l0.451,1.617l0.451,1.596l0.451,1.575l0.451,1.555l0.451,1.535l0.451,1.515l0.451,1.495l0.451,1.476l0.451,1.457l0.452,1.438l0.451,1.419l0.451,1.402l0.451,1.383l0.451,1.365l0.451,1.347l0.451,1.33l0.451,1.313l0.451,1.296l0.451,1.279l0.451,1.263l0.451,1.246l0.452,1.23l0.451,1.214l0.451,1.199l0.451,1.183l0.451,1.167l0.451,1.153l0.451,1.138l0.451,1.123l0.451,1.108l0.451,1.094l0.451,1.08l0.451,1.066l0.452,1.053l0.451,1.038l0.451,1.026l0.451,1.012l0.451,0.998l0.451,0.986l0.451,0.974l0.451,0.96l0.451,0.948l0.451,0.936l0.451,0.924l0.451,0.912l0.451,0.9l0.452,0.889l0.451,0.877l0.451,0.865l0.451,0.855l0.451,0.843l0.451,0.833l0.451,0.821l0.451,0.812l0.451,0.8l0.451,0.79l0.451,0.78l0.451,0.77l0.452,0.76l0.451,0.751l0.451,0.74l0.451,0.731l0.451,0.721l0.451,0.713l0.451,0.702l0.451,0.694l0.451,0.685l0.451,0.676l0.451,0.667l0.451,0.659l0.452,0.65l0.451,0.642l0.451,0.633l0.451,0.626l0.451,0.617l0.451,0.609l0.451,0.601l0.451,0.594l0.451,0.585l0.451,0.579l0.451,0.57l0.451,0.564l0.452,0.556l0.451,0.549l0.451,0.542l0.451,0.535l0.451,0.527l0.451,0.522l0.451,0.514l0.451,0.508l0.451,0.501l0.451,0.494l0.451,0.489l0.451,0.482l0.451,0.475l0.452,0.47l0.451,0.463l0.451,0.458l0.451,0.451l0.451,0.446l0.451,0.44l0.451,0.434l0.451,0.429l0.451,0.423l0.451,0.418l0.451,0.412l0.451,0.407l0.452,0.402l0.451,0.396l0.451,0.391l0.451,0.387l0.451,0.381l0.451,0.376l0.451,0.372l0.451,0.366l0.451,0.362l0.451,0.358l0.451,0.352l0.451,0.348l0.452,0.344l0.451,0.339l0.451,0.335l0.451,0.33l0.451,0.326l0.451,0.322l0.451,0.318l0.451,0.314l0.451,0.309l0.451,0.306l0.451,0.302l0.451,0.297l0.452,0.294l0.451,0.29l0.451,0.287l0.451,0.282l0.451,0.279l0.451,0.276l0.451,0.272l0.451,0.268l0.451,0.265l0.451,0.261l0.451,0.258l0.451,0.255l0.451,0.251l0.452,0.249l0.451,0.245l0.451,0.241l0.451,0.239l0.451,0.236l0.451,0.232l0.451,0.23l0.451,0.226l0.451,0.224l0.451,0.22l0.451,0.218l0.451,0.215l0.452,0.213l0.451,0.209l0.451,0.207l0.451,0.204l0.451,0.202l0.451,0.199l0.451,0.196l0.451,0.194l0.451,0.191l0.451,0.189l0.451,0.186l0.451,0.184l0.452,0.182l0.451,0.179l0.451,0.177l0.451,0.174l0.451,0.173l0.451,0.17" style="fill:#e33d00;fill-rule:nonzero;"/>
    <path d="M133.92,62.162c-0,-1.34 1.088,-2.429 2.429,-2.429c1.341,0 2.429,1.089 2.429,2.429l0,223.267c0,1.341 -1.088,2.429 -2.429,2.429c-1.341,0 -2.429,-1.088 -2.429,-2.429l-0,-223.267Z" style="fill:#fff;fill-opacity:0.5;"/>
    <path d="M117.92,48c-0,-1.341 1.088,-2.429 2.429,-2.429c1.341,-0 2.429,1.088 2.429,2.429l0,237.429c0,1.341 -1.088,2.429 -2.429,2.429c-1.341,0 -2.429,-1.088 -2.429,-2.429l-0,-237.429Z" style="fill:#fff;fill-opacity:0.5;"/>
    <path d="M24.251,260.972l-0.873,-4.696l0.428,-0.167l0.896,4.687l0.871,-0.162l-1.322,0.338Zm4.511,-1.869l-0.977,-4.653l0.428,-0.191l1,4.643l0.975,-0.204l-1.426,0.405Zm-0.451,0.198l-0.966,-4.658l0.428,-0.188l0.989,4.648l0.964,-0.199l-1.415,0.397Zm-0.902,0.388l-0.945,-4.667l0.428,-0.183l0.968,4.657l0.942,-0.19l-1.393,0.383Zm-0.451,0.191l-0.935,-4.672l0.428,-0.18l0.958,4.661l0.932,-0.186l-1.383,0.377Zm-1.354,0.556l-0.903,-4.684l0.428,-0.173l0.927,4.674l0.901,-0.173l-1.353,0.356Zm3.609,-1.534l-0.987,-4.648l0.428,-0.193l1.01,4.638l0.985,-0.209l-1.436,0.412Zm-1.353,0.594l-0.956,-4.662l0.429,-0.186l0.978,4.653l0.953,-0.195l-1.404,0.39Zm-1.804,0.757l-0.914,-4.68l0.428,-0.176l0.937,4.671l0.911,-0.178l-1.362,0.363Zm-0.903,0.364l-0.893,-4.688l0.428,-0.171l0.916,4.678l0.891,-0.169l-1.342,0.35Zm-0.451,0.179l-0.883,-4.692l0.428,-0.17l0.906,4.683l0.881,-0.165l-1.332,0.344Zm1.805,-0.728l-0.924,-4.676l0.428,-0.178l0.947,4.666l0.921,-0.182l-1.372,0.37Zm-2.707,1.078l-0.863,-4.7l0.428,-0.165l0.886,4.691l0.861,-0.158l-1.312,0.332Zm-0.451,0.171l-0.853,-4.703l0.428,-0.163l0.876,4.695l0.851,-0.154l-1.302,0.325Zm0,0c-1.341,0 -2.429,-1.088 -2.429,-2.429c-0,-1.341 1.088,-2.429 2.429,2.429Zm6.315,-2.618l-0.998,-4.644l0.428,-0.195l0.137,0.623c0.003,-0.005 0.005,-0.011 0.008,-0.017l-0.133,-0.612l0.428,-0.198l0.053,0.237c0.003,-0.004 0.007,-0.008 0.01,-0.012l-0.051,-0.23l0.428,-0.201l0.013,0.055c0.003,-0.003 0.007,-0.006 0.011,-0.009l-0.012,-0.051l0.428,-0.203c0.001,-0.001 0.001,-0.001 0.002,-0.001l0.445,-0.214l0.44,-0.215l0.44,-0.217l0.44,-0.22l0.44,-0.222l0.439,-0.226l0.44,-0.229l0.439,-0.231l0.44,-0.235l0.439,-0.237l0.44,-0.241l0.439,-0.244l0.439,-0.247l0.44,-0.25l0.439,-0.253l0.439,-0.257l0.439,-0.26l0.439,-0.263l0.439,-0.267l0.439,-0.271l0.439,-0.274l0.44,-0.277l0.438,-0.281l0.439,-0.285l0.439,-0.288l0.439,-0.293l0.439,-0.296l0.439,-0.3l0.439,-0.303l0.439,-0.308l0.439,-0.312l0.439,-0.316l0.439,-0.32l0.439,-0.324l0.439,-0.329l0.439,-0.333l0.439,-0.337l0.439,-0.342l0.439,-0.346l0.439,-0.351l0.439,-0.355l0.439,-0.36l0.439,-0.365l0.439,-0.369l0.439,-0.375l0.44,-0.379l0.439,-0.385l0.439,-0.389l0.44,-0.395l0.439,-0.399l0.439,-0.406l0.44,-0.41l0.44,-0.416l0.439,-0.421l0.44,-0.428l0.44,-0.432l0.44,-0.439l0.44,-0.444l0.44,-0.45l0.44,-0.456l0.44,-0.462l0.44,-0.469l0.441,-0.474l0.44,-0.481l0.441,-0.487l0.44,-0.494l0.441,-0.5l0.441,-0.507l0.441,-0.514l0.441,-0.52l0.441,-0.528l0.441,-0.534l0.441,-0.542l0.442,-0.549l0.441,-0.556l0.442,-0.564l0.442,-0.571l0.441,-0.579l0.442,-0.586l0.442,-0.594l0.443,-0.603l0.442,-0.61l0.442,-0.618l0.443,-0.627l0.442,-0.635l0.443,-0.644l0.443,-0.652l0.443,-0.661l0.443,-0.669l0.443,-0.679l0.443,-0.688l0.444,-0.697l0.443,-0.706l0.444,-0.715l0.444,-0.726l0.443,-0.735l0.444,-0.744l0.444,-0.755l0.445,-0.765l0.444,-0.775l0.444,-0.785l0.445,-0.796l0.445,-0.806l0.444,-0.817l0.445,-0.828l0.445,-0.839l0.445,-0.851l0.445,-0.861l0.446,-0.873l0.445,-0.885l0.445,-0.897l0.446,-0.908l0.446,-0.921l0.445,-0.933l0.446,-0.945l0.446,-0.958l0.446,-0.971l0.447,-0.983l0.446,-0.997l0.446,-1.01l0.447,-1.024l0.446,-1.037l0.447,-1.051l0.446,-1.064l0.447,-1.079l0.447,-1.094l0.447,-1.108l0.447,-1.122l0.447,-1.138l0.448,-1.152l0.447,-1.168l0.447,-1.184l0.448,-1.199l0.447,-1.215l0.448,-1.231l0.448,-1.247l0.447,-1.265l0.448,-1.28l0.448,-1.298l0.448,-1.315l0.448,-1.333l0.448,-1.35l0.448,-1.368l0.449,-1.386l0.448,-1.404l0.448,-1.423l0.449,-1.442l0.448,-1.461l0.449,-1.48l0.448,-1.5l0.449,-1.52l0.449,-1.54l0.448,-1.56l0.449,-1.581l0.449,-1.601l0.449,-1.623l0.449,-1.645l0.449,-1.666l0.449,-1.688l0.449,-1.71l0.449,-1.733l0.449,-1.756l0.45,-1.779l0.449,-1.802l0.449,-1.826l0.45,-1.851l0.449,-1.874l0.45,-1.9l0.449,-1.924l0.45,-1.95l0.449,-1.976l0.45,-2.001l0.449,-2.028l0.45,-2.055l0.45,-2.082l0.449,-2.109l0.45,-2.137l0.45,-2.165l0.45,-2.194l0.45,-2.222l0.45,-2.252l0.45,-2.281l0.45,-2.312l0.45,-2.342l0.45,-2.372l0.45,-2.404l0.45,-2.436l0.45,-2.467l0.45,-2.501l0.45,-2.532l0.45,-2.567l0.45,-2.6l0.45,-2.634l0.451,-2.669l0.45,-2.704l0.45,-2.739l0.45,-2.776l0.451,-2.812l0.45,-2.849l0.45,-2.886l0.451,-2.924l0.45,-2.963l0.451,-3.002l0.45,-3.041l0.45,-3.081l0.451,-3.121l0.45,-3.163l0.451,-3.204l0.45,-3.246l0.451,-3.289l0.45,-3.332l0.451,-3.375l0.451,-3.423c0.024,-0.188 0.071,-0.373 0.139,-0.551l0.452,-1.178c0.397,-1.038 1.449,-1.674 2.553,-1.543c1.104,0.13 1.979,0.994 2.124,2.096l0.45,3.437l0.451,3.391l0.45,3.347l0.451,3.303l0.45,3.261l0.451,3.218l0.45,3.177l0.451,3.135l0.45,3.095l0.451,3.055l0.45,3.015l0.45,2.976l0.451,2.937l0.45,2.899l0.45,2.862l0.451,2.825l0.45,2.787l0.45,2.752l0.451,2.716l0.45,2.681l0.45,2.646l0.45,2.612l0.45,2.577l0.45,2.545l0.451,2.511l0.45,2.478l0.45,2.447l0.45,2.414l0.45,2.384l0.45,2.352l0.45,2.322l0.45,2.292l0.45,2.261l0.449,2.233l0.45,2.203l0.45,2.175l0.45,2.147l0.45,2.118l0.449,2.091l0.45,2.064l0.45,2.037l0.449,2.011l0.45,1.984l0.449,1.959l0.45,1.933l0.449,1.908l0.45,1.883l0.449,1.859l0.45,1.834l0.449,1.81l0.449,1.787l0.449,1.764l0.449,1.741l0.45,1.718l0.449,1.695l0.449,1.674l0.449,1.651l0.449,1.631l0.448,1.608l0.449,1.588l0.449,1.568l0.449,1.546l0.448,1.527l0.449,1.506l0.449,1.487l0.448,1.468l0.449,1.448l0.448,1.43l0.448,1.41l0.449,1.393l0.448,1.374l0.448,1.356l0.448,1.338l0.448,1.321l0.448,1.304l0.448,1.287l0.447,1.269l0.448,1.254l0.448,1.236l0.447,1.221l0.448,1.204l0.447,1.189l0.448,1.173l0.447,1.158l0.447,1.143l0.447,1.127l0.447,1.113l0.447,1.098l0.447,1.084l0.447,1.07l0.446,1.056l0.447,1.041l0.446,1.028l0.447,1.015l0.446,1.001l0.446,0.988l0.446,0.975l0.446,0.963l0.446,0.949l0.446,0.937l0.446,0.925l0.445,0.913l0.446,0.9l0.445,0.889l0.446,0.877l0.445,0.866l0.445,0.854l0.445,0.843l0.445,0.832l0.445,0.821l0.444,0.81l0.445,0.799l0.444,0.789l0.445,0.778l0.444,0.768l0.444,0.759l0.444,0.748l0.444,0.738l0.444,0.728l0.443,0.719l0.444,0.71l0.443,0.7l0.444,0.69l0.443,0.682l0.443,0.673l0.443,0.664l0.443,0.655l0.442,0.646l0.443,0.638l0.443,0.63l0.442,0.621l0.442,0.613l0.443,0.605l0.442,0.597l0.442,0.589l0.441,0.582l0.442,0.573l0.442,0.567l0.441,0.558l0.442,0.552l0.441,0.544l0.441,0.537l0.442,0.53l0.441,0.522l0.441,0.516l0.44,0.51l0.441,0.502l0.441,0.496l0.44,0.49l0.441,0.483l0.44,0.476l0.441,0.471l0.44,0.464l0.44,0.458l0.44,0.452l0.44,0.447l0.44,0.44l0.44,0.435l0.439,0.429l0.44,0.423l0.44,0.418l0.439,0.412l0.44,0.407l0.439,0.402l0.44,0.396l0.439,0.391l0.439,0.386l0.44,0.381l0.439,0.377l0.439,0.371l0.439,0.366l0.439,0.362l0.439,0.357l0.439,0.352l0.439,0.348l0.439,0.343l0.439,0.339l0.439,0.334l0.439,0.33l0.439,0.326l0.439,0.321l0.439,0.318l0.439,0.313l0.439,0.309l0.439,0.305l0.439,0.302l0.439,0.297l0.439,0.293l0.439,0.29l0.439,0.286l0.439,0.283l0.439,0.278l0.439,0.275l0.439,0.272l0.439,0.268l0.439,0.265l0.439,0.261l0.439,0.258l0.439,0.254l0.44,0.251l0.439,0.248l0.439,0.245l0.44,0.242l0.439,0.239l0.44,0.235l0.439,0.233l0.44,0.229l0.439,0.227l0.44,0.224l0.44,0.221l0.44,0.218l0.439,0.215c0,-0 0.444,0.214 0.444,0.214l0.432,0.206l0.011,0.005l0.429,0.202l0.012,0.005l0.428,0.199l0.012,0.006l0.428,0.196l0.012,0.006l0.428,0.193l0.012,0.006l0.428,0.191l0.013,0.006l0.428,0.188l0.012,0.006l0.428,0.186c0.004,0.002 0.008,0.004 0.013,0.005l0.428,0.184c0.004,0.002 0.008,0.004 0.012,0.006l0.428,0.181c0.004,0.002 0.009,0.004 0.013,0.006l0.428,0.179c0.004,0.001 0.008,0.003 0.012,0.005l0.429,0.177c0.004,0.002 0.008,0.003 0.012,0.005l0.428,0.175c0.005,0.001 0.009,0.003 0.013,0.005l0.428,0.172c0.005,0.002 0.009,0.004 0.013,0.005l0.428,0.17c0.005,0.002 0.009,0.004 0.013,0.006l0.428,0.167c0.005,0.002 0.009,0.004 0.013,0.005l0.428,0.166c0.005,0.002 0.009,0.004 0.013,0.005l0.429,0.164c0.004,0.001 0.008,0.003 0.013,0.005l0.428,0.161c2.887,1.089 -0.847,4.706 -0.847,4.706c-0.411,0 -0.797,-0.102 -1.137,-0.282l-0.159,-0.04l0.129,0.024c-0.051,-0.028 -0.1,-0.058 -0.148,-0.089l-0.442,-0.111l0.379,0.069c-0.025,-0.017 -0.05,-0.035 -0.074,-0.053l-0.766,-0.194l0.677,0.125c-0.008,-0.007 -0.015,-0.013 -0.023,-0.02l-1.115,-0.286l0.875,0.163l-1.336,-0.346l0.885,0.167l-1.346,-0.352l0.894,0.17l-1.355,-0.358l0.904,0.174l-1.366,-0.365l0.915,0.179l-1.376,-0.372l0.925,0.183l-1.387,-0.379l0.936,0.188l-1.397,-0.386l0.946,0.192l-1.408,-0.393l0.957,0.197l-1.419,-0.4l0.968,0.201l-1.429,-0.407l0.978,0.205l-1.44,-0.414l0.989,0.21l-1.451,-0.422l1,0.215l-1.462,-0.429l1.011,0.22l-1.473,-0.438l1.021,0.226l-1.483,-0.446l1.032,0.23l-1.056,-0.241l-0.451,-0.218c-0.004,-0.002 -0.008,-0.004 -0.011,-0.006l-0.451,-0.22c-0.004,-0.002 -0.008,-0.004 -0.012,-0.006l-0.451,-0.224c-0.004,-0.001 -0.007,-0.003 -0.011,-0.005l-0.451,-0.227c-0.004,-0.002 -0.008,-0.004 -0.012,-0.005l-0.451,-0.23c-0.003,-0.002 -0.007,-0.004 -0.011,-0.006l-0.451,-0.232c-0.004,-0.002 -0.008,-0.004 -0.012,-0.006l-0.451,-0.236c-0.003,-0.002 -0.007,-0.004 -0.011,-0.006l-0.451,-0.239c-0.004,-0.002 -0.008,-0.004 -0.012,-0.006l-0.451,-0.242c-0.004,-0.002 -0.008,-0.004 -0.012,-0.006l-0.451,-0.245c-0.004,-0.002 -0.007,-0.004 -0.011,-0.006l-0.451,-0.248c-0.004,-0.002 -0.008,-0.005 -0.012,-0.007l-0.451,-0.251c-0.004,-0.002 -0.008,-0.005 -0.012,-0.007l-0.451,-0.254c-0.004,-0.003 -0.008,-0.005 -0.012,-0.007l-0.451,-0.258c-0.004,-0.002 -0.008,-0.005 -0.012,-0.007l-0.451,-0.261c-0.004,-0.003 -0.008,-0.005 -0.012,-0.007l-0.451,-0.265c-0.004,-0.003 -0.008,-0.005 -0.012,-0.007l-0.451,-0.269c-0.004,-0.002 -0.008,-0.004 -0.012,-0.007l-0.451,-0.272c-0.004,-0.002 -0.008,-0.004 -0.012,-0.007l-0.451,-0.275c-0.004,-0.003 -0.008,-0.005 -0.012,-0.008l-0.451,-0.279c-0.004,-0.002 -0.008,-0.005 -0.012,-0.007l-0.451,-0.283c-0.004,-0.002 -0.008,-0.005 -0.012,-0.007l-0.451,-0.287c-0.004,-0.002 -0.008,-0.005 -0.012,-0.007l-0.451,-0.291c-0.004,-0.002 -0.009,-0.005 -0.013,-0.007l-0.451,-0.294c-0.004,-0.003 -0.008,-0.006 -0.012,-0.008l-0.451,-0.298c-0.004,-0.003 -0.008,-0.005 -0.012,-0.008l-0.451,-0.302c-0.004,-0.002 -0.008,-0.005 -0.012,-0.008l-0.451,-0.305c-0.004,-0.003 -0.008,-0.006 -0.012,-0.009l-0.452,-0.309c-0.004,-0.003 -0.008,-0.006 -0.012,-0.009l-0.451,-0.313c-0.004,-0.003 -0.008,-0.006 -0.012,-0.009l-0.451,-0.318c-0.004,-0.003 -0.008,-0.005 -0.012,-0.008l-0.451,-0.322c-0.004,-0.003 -0.008,-0.006 -0.012,-0.009l-0.452,-0.326c-0.004,-0.003 -0.008,-0.006 -0.012,-0.009l-0.451,-0.33c-0.004,-0.003 -0.008,-0.006 -0.012,-0.009l-0.451,-0.335c-0.004,-0.003 -0.008,-0.006 -0.012,-0.009l-0.451,-0.339c-0.004,-0.003 -0.008,-0.007 -0.012,-0.01l-0.451,-0.343c-0.004,-0.003 -0.009,-0.006 -0.013,-0.009l-0.451,-0.349c-0.004,-0.003 -0.008,-0.006 -0.012,-0.009l-0.451,-0.353c-0.004,-0.003 -0.008,-0.006 -0.012,-0.009l-0.451,-0.357c-0.004,-0.004 -0.008,-0.007 -0.012,-0.01l-0.451,-0.362c-0.004,-0.003 -0.008,-0.006 -0.012,-0.01l-0.451,-0.366c-0.004,-0.004 -0.008,-0.007 -0.012,-0.01l-0.451,-0.372c-0.004,-0.003 -0.008,-0.006 -0.012,-0.01l-0.451,-0.376c-0.004,-0.003 -0.008,-0.007 -0.012,-0.01l-0.451,-0.381c-0.004,-0.004 -0.008,-0.007 -0.012,-0.01l-0.451,-0.387c-0.004,-0.003 -0.008,-0.006 -0.012,-0.01l-0.451,-0.391c-0.004,-0.004 -0.008,-0.007 -0.012,-0.01l-0.451,-0.397c-0.004,-0.003 -0.008,-0.007 -0.012,-0.01l-0.451,-0.402c-0.004,-0.003 -0.008,-0.007 -0.012,-0.01l-0.451,-0.407c-0.004,-0.004 -0.007,-0.007 -0.011,-0.011l-0.451,-0.412c-0.004,-0.004 -0.008,-0.007 -0.012,-0.011l-0.451,-0.417c-0.004,-0.004 -0.008,-0.008 -0.012,-0.011l-0.451,-0.423c-0.004,-0.004 -0.007,-0.008 -0.011,-0.011l-0.451,-0.429c-0.004,-0.003 -0.008,-0.007 -0.012,-0.011l-0.451,-0.434c-0.004,-0.004 -0.007,-0.007 -0.011,-0.011l-0.451,-0.44c-0.004,-0.004 -0.008,-0.007 -0.011,-0.011l-0.452,-0.446c-0.003,-0.004 -0.007,-0.007 -0.011,-0.011l-0.451,-0.452c-0.004,-0.003 -0.007,-0.007 -0.011,-0.011l-0.451,-0.457c-0.004,-0.004 -0.007,-0.008 -0.011,-0.012l-0.451,-0.463c-0.004,-0.004 -0.008,-0.008 -0.011,-0.011l-0.451,-0.47c-0.004,-0.004 -0.008,-0.008 -0.011,-0.011l-0.451,-0.476c-0.004,-0.004 -0.007,-0.008 -0.011,-0.012l-0.451,-0.481c-0.004,-0.004 -0.007,-0.008 -0.011,-0.012l-0.451,-0.488c-0.004,-0.004 -0.007,-0.008 -0.011,-0.012l-0.451,-0.495c-0.003,-0.003 -0.007,-0.007 -0.01,-0.011l-0.451,-0.501c-0.004,-0.004 -0.007,-0.008 -0.011,-0.012l-0.451,-0.508c-0.003,-0.004 -0.007,-0.008 -0.01,-0.011l-0.451,-0.515c-0.004,-0.004 -0.007,-0.008 -0.011,-0.012l-0.451,-0.521c-0.003,-0.004 -0.007,-0.008 -0.01,-0.012l-0.451,-0.527c-0.003,-0.004 -0.007,-0.008 -0.01,-0.012l-0.451,-0.535c-0.004,-0.004 -0.007,-0.008 -0.01,-0.012l-0.451,-0.542c-0.004,-0.004 -0.007,-0.008 -0.01,-0.012l-0.451,-0.549c-0.004,-0.004 -0.007,-0.008 -0.01,-0.012l-0.451,-0.556c-0.003,-0.004 -0.007,-0.008 -0.01,-0.012l-0.451,-0.563c-0.003,-0.004 -0.006,-0.008 -0.009,-0.012l-0.452,-0.571c-0.003,-0.004 -0.006,-0.008 -0.009,-0.012l-0.451,-0.579c-0.003,-0.004 -0.006,-0.008 -0.009,-0.012l-0.452,-0.585c-0.003,-0.004 -0.006,-0.009 -0.009,-0.013l-0.451,-0.593c-0.003,-0.004 -0.006,-0.008 -0.009,-0.012l-0.451,-0.601c-0.003,-0.005 -0.006,-0.009 -0.009,-0.013l-0.451,-0.609c-0.003,-0.004 -0.006,-0.008 -0.009,-0.012l-0.451,-0.617c-0.003,-0.004 -0.006,-0.008 -0.009,-0.012l-0.451,-0.625c-0.003,-0.004 -0.006,-0.009 -0.009,-0.013l-0.451,-0.633c-0.003,-0.004 -0.006,-0.008 -0.009,-0.012l-0.451,-0.642c-0.003,-0.004 -0.005,-0.008 -0.008,-0.012l-0.451,-0.65c-0.003,-0.004 -0.006,-0.008 -0.009,-0.012l-0.451,-0.659c-0.003,-0.004 -0.005,-0.008 -0.008,-0.012l-0.451,-0.667c-0.003,-0.004 -0.006,-0.008 -0.008,-0.013l-0.451,-0.676c-0.003,-0.004 -0.006,-0.008 -0.008,-0.012l-0.452,-0.685c-0.002,-0.004 -0.005,-0.008 -0.007,-0.012l-0.452,-0.693c-0.002,-0.005 -0.005,-0.009 -0.007,-0.013l-0.451,-0.703c-0.003,-0.004 -0.006,-0.008 -0.008,-0.012l-0.451,-0.712c-0.003,-0.004 -0.005,-0.008 -0.008,-0.012l-0.451,-0.721c-0.002,-0.004 -0.005,-0.008 -0.007,-0.012l-0.451,-0.731c-0.003,-0.004 -0.005,-0.008 -0.008,-0.012l-0.451,-0.741c-0.002,-0.004 -0.005,-0.008 -0.007,-0.012l-0.451,-0.75c-0.003,-0.004 -0.005,-0.008 -0.007,-0.012l-0.451,-0.76c-0.003,-0.004 -0.005,-0.008 -0.007,-0.012l-0.452,-0.77c-0.002,-0.004 -0.004,-0.008 -0.006,-0.012l-0.452,-0.78c-0.002,-0.004 -0.004,-0.007 -0.006,-0.011l-0.451,-0.791c-0.003,-0.004 -0.005,-0.008 -0.007,-0.011l-0.451,-0.801c-0.002,-0.004 -0.005,-0.008 -0.007,-0.012l-0.451,-0.811c-0.002,-0.004 -0.004,-0.008 -0.006,-0.012l-0.451,-0.821c-0.003,-0.004 -0.005,-0.008 -0.007,-0.012l-0.451,-0.833c-0.002,-0.003 -0.004,-0.007 -0.006,-0.011l-0.451,-0.844c-0.002,-0.003 -0.004,-0.007 -0.006,-0.011l-0.451,-0.855c-0.002,-0.003 -0.004,-0.007 -0.006,-0.011l-0.452,-0.866c-0.002,-0.004 -0.004,-0.007 -0.005,-0.011l-0.452,-0.877c-0.002,-0.004 -0.003,-0.008 -0.005,-0.012l-0.451,-0.888c-0.002,-0.004 -0.004,-0.008 -0.006,-0.011l-0.451,-0.901c-0.002,-0.003 -0.004,-0.007 -0.006,-0.011l-0.451,-0.912c-0.002,-0.003 -0.004,-0.007 -0.006,-0.011l-0.451,-0.924c-0.001,-0.004 -0.003,-0.007 -0.005,-0.011l-0.451,-0.936c-0.002,-0.004 -0.004,-0.007 -0.005,-0.011l-0.451,-0.948c-0.002,-0.004 -0.004,-0.008 -0.006,-0.011l-0.451,-0.961c-0.002,-0.004 -0.003,-0.007 -0.005,-0.011l-0.451,-0.973l-0.005,-0.011l-0.451,-0.986l-0.005,-0.011l-0.451,-0.999l-0.005,-0.011l-0.451,-1.011l-0.005,-0.011l-0.451,-1.025l-0.004,-0.011l-0.452,-1.039l-0.004,-0.01l-0.451,-1.052l-0.005,-0.011l-0.451,-1.066l-0.004,-0.01l-0.451,-1.08l-0.005,-0.011l-0.451,-1.094l-0.004,-0.01l-0.451,-1.109l-0.004,-0.01l-0.451,-1.123l-0.004,-0.01l-0.451,-1.138l-0.004,-0.01l-0.451,-1.152l-0.004,-0.01l-0.451,-1.168l-0.004,-0.01l-0.451,-1.183l-0.004,-0.01l-0.451,-1.198l-0.003,-0.01l-0.452,-1.214l-0.003,-0.01l-0.451,-1.23l-0.004,-0.009l-0.451,-1.247l-0.003,-0.009l-0.451,-1.263l-0.004,-0.009l-0.451,-1.279l-0.003,-0.01l-0.451,-1.295l-0.003,-0.01l-0.451,-1.312l-0.003,-0.01l-0.451,-1.33l-0.004,-0.009l-0.451,-1.347l-0.003,-0.009l-0.451,-1.365l-0.003,-0.009l-0.451,-1.383l-0.003,-0.009l-0.451,-1.401l-0.002,-0.009l-0.451,-1.419l-0.003,-0.009l-0.451,-1.438l-0.003,-0.009l-0.451,-1.456l-0.003,-0.009l-0.451,-1.476l-0.002,-0.008l-0.451,-1.496l-0.003,-0.008l-0.451,-1.515l-0.002,-0.008l-0.451,-1.535l-0.003,-0.008l-0.451,-1.555l-0.002,-0.008l-0.451,-1.575l-0.003,-0.008l-0.451,-1.596l-0.002,-0.008l-0.451,-1.617l-0.002,-0.008l-0.451,-1.638l-0.002,-0.007l-0.451,-1.66l-0.003,-0.007l-0.451,-1.681l-0.002,-0.008l-0.451,-1.703l-0.002,-0.008l-0.451,-1.725l-0.002,-0.008l-0.451,-1.748l-0.002,-0.007l-0.451,-1.771l-0.002,-0.007l-0.451,-1.795l-0.002,-0.007l-0.451,-1.817l-0.001,-0.008l-0.451,-1.841l-0.002,-0.007l-0.451,-1.866l-0.002,-0.007l-0.451,-1.89l-0.002,-0.007l-0.451,-1.914l-0.001,-0.007l-0.451,-1.94l-0.002,-0.007l-0.451,-1.965l-0.002,-0.007l-0.451,-1.991l-0.001,-0.007l-0.451,-2.017l-0.002,-0.006l-0.451,-2.044l-0.001,-0.006l-0.451,-2.071l-0.002,-0.006l-0.451,-2.097l-0.001,-0.007l-0.451,-2.125l-0.001,-0.006l-0.452,-2.153l-0.001,-0.006l-0.451,-2.181l-0.001,-0.006l-0.451,-2.209l-0.001,-0.006l-0.452,-2.239l-0.001,-0.006l-0.451,-2.268l-0.001,-0.005l-0.451,-2.298l-0.001,-0.006l-0.451,-2.327l-0.001,-0.006l-0.452,-2.358l-0.001,-0.006l-0.451,-2.389l-0.001,-0.006l-0.451,-2.42l-0.001,-0.005l-0.451,-2.452l-0.001,-0.006l-0.451,-2.484l-0.001,-0.005l-0.451,-2.517l-0.001,-0.005l-0.451,-2.55l-0.001,-0.005l-0.451,-2.583l-0.001,-0.006l-0.451,-2.616l-0.001,-0.006l-0.451,-2.651l-0.001,-0.005l-0.451,-2.686l-0.001,-0.005l-0.451,-2.721l-0.001,-0.005l-0.451,-2.756l-0.001,-0.005l-0.451,-2.793l-0.001,-0.005l-0.451,-2.829l-0,-0.005l-0.451,-2.867l-0.001,-0.004l-0.451,-2.904l-0.001,-0.005l-0.451,-2.942l-0.001,-0.005l-0.451,-2.98l-0.001,-0.005l-0.451,-3.02l-0,-0.004l-0.451,-3.059l-0.001,-0.005l-0.451,-3.099l-0.001,-0.004l-0.451,-3.14l-0.001,-0.005l-0.451,-3.181l-0,-0.004l-0.45,-3.213l-0.151,1.091l-0.001,0.004l-0.451,3.209l-0.001,0.004l-0.451,3.167l-0,0.004l-0.452,3.126l-0,0.005l-0.451,3.085l-0.001,0.005l-0.451,3.045l-0.001,0.005l-0.451,3.006l-0,0.005l-0.452,2.967l-0,0.005l-0.451,2.929l-0.001,0.005l-0.451,2.891l-0.001,0.005l-0.451,2.853l-0.001,0.005l-0.451,2.817l-0.001,0.005l-0.451,2.78l-0,0.005l-0.452,2.745l-0,0.005l-0.451,2.709l-0.001,0.005l-0.451,2.674l-0.001,0.005l-0.451,2.639l-0.001,0.005l-0.451,2.606l-0.001,0.005l-0.451,2.572l-0.001,0.005l-0.451,2.538l-0.001,0.006l-0.451,2.505l-0.001,0.006l-0.451,2.473l-0.002,0.005l-0.451,2.441l-0.001,0.006l-0.451,2.409l-0.001,0.006l-0.451,2.378l-0.001,0.006l-0.451,2.348l-0.001,0.006l-0.451,2.317l-0.001,0.006l-0.451,2.287l-0.002,0.006l-0.451,2.258l-0.001,0.006l-0.451,2.228l-0.001,0.006l-0.451,2.2l-0.002,0.006l-0.451,2.172l-0.001,0.006l-0.451,2.143l-0.001,0.006l-0.451,2.116l-0.002,0.006l-0.451,2.088l-0.001,0.007l-0.451,2.061l-0.002,0.006l-0.451,2.035l-0.001,0.006l-0.451,2.009l-0.002,0.006l-0.451,1.982l-0.002,0.007l-0.451,1.957l-0.001,0.006l-0.451,1.932l-0.002,0.007l-0.451,1.906l-0.002,0.007l-0.451,1.882l-0.001,0.007l-0.451,1.857l-0.002,0.007l-0.451,1.833l-0.002,0.007l-0.451,1.81l-0.002,0.007l-0.451,1.787l-0.002,0.007l-0.451,1.763l-0.002,0.007l-0.451,1.741l-0.002,0.007l-0.451,1.718l-0.002,0.008l-0.451,1.695l-0.002,0.008l-0.451,1.674l-0.002,0.007l-0.451,1.652l-0.003,0.008l-0.451,1.631l-0.002,0.008l-0.451,1.609l-0.002,0.008l-0.451,1.589l-0.003,0.008l-0.451,1.568l-0.002,0.008l-0.451,1.548l-0.002,0.008l-0.451,1.528l-0.003,0.009l-0.451,1.508l-0.003,0.008l-0.451,1.489l-0.002,0.008l-0.451,1.47l-0.003,0.008l-0.451,1.451l-0.003,0.008l-0.451,1.432l-0.003,0.009l-0.451,1.413l-0.002,0.009l-0.452,1.395l-0.002,0.008l-0.451,1.377l-0.003,0.009l-0.451,1.359l-0.004,0.009l-0.451,1.342l-0.003,0.009l-0.451,1.324l-0.003,0.009l-0.451,1.307l-0.003,0.009l-0.451,1.291l-0.004,0.009l-0.451,1.273l-0.003,0.01l-0.451,1.257l-0.004,0.009l-0.451,1.241l-0.003,0.01l-0.451,1.224l-0.004,0.01l-0.451,1.209l-0.004,0.01l-0.451,1.193l-0.003,0.01l-0.451,1.177l-0.004,0.01l-0.451,1.163l-0.004,0.01l-0.451,1.147l-0.004,0.01l-0.451,1.133l-0.004,0.01l-0.451,1.118l-0.005,0.01l-0.451,1.104l-0.004,0.01l-0.451,1.09l-0.004,0.01l-0.451,1.075l-0.005,0.011l-0.451,1.061l-0.004,0.01l-0.452,1.048l-0.004,0.011l-0.451,1.034l-0.005,0.01l-0.451,1.021l-0.005,0.011l-0.451,1.007l-0.005,0.011l-0.451,0.994l-0.005,0.011l-0.451,0.982l-0.005,0.011l-0.451,0.969c-0.002,0.003 -0.003,0.007 -0.005,0.011l-0.451,0.956c-0.002,0.004 -0.004,0.008 -0.005,0.011l-0.451,0.944c-0.002,0.004 -0.004,0.008 -0.006,0.011l-0.451,0.932c-0.002,0.004 -0.004,0.008 -0.005,0.011l-0.451,0.92c-0.002,0.004 -0.004,0.008 -0.006,0.011l-0.451,0.908c-0.002,0.004 -0.004,0.008 -0.006,0.012l-0.451,0.896c-0.002,0.003 -0.004,0.007 -0.006,0.011l-0.451,0.885c-0.002,0.003 -0.004,0.007 -0.006,0.011l-0.451,0.873c-0.002,0.004 -0.004,0.008 -0.006,0.012l-0.451,0.861c-0.002,0.004 -0.004,0.008 -0.006,0.012l-0.451,0.851c-0.002,0.003 -0.004,0.007 -0.006,0.011l-0.451,0.84c-0.002,0.004 -0.004,0.008 -0.006,0.011l-0.451,0.829c-0.003,0.004 -0.005,0.008 -0.007,0.012l-0.451,0.818c-0.002,0.004 -0.004,0.008 -0.006,0.012l-0.452,0.807c-0.002,0.004 -0.004,0.008 -0.006,0.012l-0.451,0.797c-0.002,0.004 -0.005,0.008 -0.007,0.012l-0.451,0.787c-0.002,0.004 -0.005,0.008 -0.007,0.012l-0.451,0.776c-0.002,0.004 -0.005,0.008 -0.007,0.012l-0.451,0.767c-0.002,0.004 -0.005,0.008 -0.007,0.012l-0.451,0.756c-0.003,0.004 -0.005,0.008 -0.007,0.012l-0.451,0.747c-0.003,0.004 -0.005,0.008 -0.008,0.012l-0.451,0.737c-0.002,0.004 -0.005,0.008 -0.007,0.012l-0.451,0.728c-0.003,0.004 -0.005,0.008 -0.008,0.012l-0.451,0.718c-0.002,0.004 -0.005,0.008 -0.007,0.012l-0.452,0.709c-0.002,0.004 -0.005,0.008 -0.007,0.012l-0.451,0.7c-0.003,0.004 -0.006,0.008 -0.008,0.012l-0.451,0.691c-0.003,0.004 -0.006,0.008 -0.008,0.012l-0.451,0.682c-0.003,0.004 -0.006,0.008 -0.008,0.012l-0.452,0.673c-0.002,0.004 -0.005,0.008 -0.008,0.012l-0.451,0.665c-0.003,0.004 -0.005,0.008 -0.008,0.012l-0.451,0.655c-0.003,0.004 -0.006,0.009 -0.009,0.013l-0.451,0.647c-0.003,0.004 -0.005,0.008 -0.008,0.012l-0.451,0.639c-0.003,0.004 -0.006,0.008 -0.009,0.012l-0.451,0.631c-0.003,0.004 -0.006,0.008 -0.009,0.012l-0.451,0.622c-0.003,0.004 -0.006,0.008 -0.009,0.012l-0.451,0.615c-0.003,0.004 -0.006,0.008 -0.009,0.012l-0.451,0.606c-0.003,0.004 -0.006,0.009 -0.009,0.013l-0.451,0.598c-0.003,0.004 -0.006,0.008 -0.009,0.012l-0.451,0.591c-0.003,0.004 -0.007,0.008 -0.01,0.012l-0.451,0.584c-0.003,0.004 -0.006,0.008 -0.009,0.012l-0.451,0.575c-0.003,0.004 -0.007,0.008 -0.01,0.012l-0.451,0.569c-0.003,0.004 -0.006,0.008 -0.009,0.012l-0.452,0.561c-0.003,0.004 -0.006,0.008 -0.009,0.012l-0.451,0.553c-0.004,0.004 -0.007,0.008 -0.01,0.012l-0.451,0.547c-0.004,0.004 -0.007,0.008 -0.01,0.012l-0.451,0.539c-0.004,0.004 -0.007,0.008 -0.01,0.012l-0.451,0.532c-0.004,0.004 -0.007,0.008 -0.011,0.012l-0.451,0.526c-0.003,0.004 -0.006,0.008 -0.01,0.012l-0.451,0.519c-0.003,0.003 -0.007,0.007 -0.01,0.011l-0.451,0.512c-0.004,0.004 -0.007,0.008 -0.011,0.012l-0.451,0.506c-0.003,0.003 -0.007,0.007 -0.01,0.011l-0.451,0.499c-0.004,0.004 -0.007,0.008 -0.011,0.012l-0.451,0.492c-0.004,0.004 -0.007,0.008 -0.011,0.012l-0.451,0.486c-0.003,0.004 -0.007,0.008 -0.011,0.011l-0.451,0.48c-0.003,0.004 -0.007,0.008 -0.011,0.012l-0.451,0.473c-0.003,0.004 -0.007,0.008 -0.011,0.012l-0.451,0.467c-0.003,0.004 -0.007,0.008 -0.011,0.012l-0.451,0.461c-0.003,0.004 -0.007,0.007 -0.011,0.011l-0.451,0.456c-0.004,0.003 -0.007,0.007 -0.011,0.011l-0.451,0.449c-0.004,0.004 -0.008,0.008 -0.011,0.012l-0.451,0.443c-0.004,0.004 -0.008,0.008 -0.012,0.011l-0.451,0.438c-0.004,0.004 -0.007,0.008 -0.011,0.011l-0.451,0.433c-0.004,0.003 -0.008,0.007 -0.012,0.011l-0.451,0.426c-0.004,0.004 -0.007,0.008 -0.011,0.011l-0.451,0.421c-0.004,0.004 -0.008,0.008 -0.012,0.011l-0.451,0.416c-0.004,0.004 -0.008,0.007 -0.012,0.011l-0.451,0.41c-0.004,0.004 -0.007,0.007 -0.011,0.011l-0.451,0.405c-0.004,0.003 -0.008,0.007 -0.012,0.01l-0.451,0.4c-0.004,0.004 -0.008,0.007 -0.012,0.01l-0.451,0.395c-0.004,0.004 -0.008,0.007 -0.012,0.01l-0.451,0.39c-0.004,0.003 -0.008,0.007 -0.012,0.01l-0.451,0.385c-0.004,0.003 -0.008,0.006 -0.012,0.01l-0.451,0.379c-0.004,0.004 -0.008,0.007 -0.012,0.01l-0.451,0.375c-0.004,0.003 -0.008,0.007 -0.012,0.01l-0.451,0.37c-0.004,0.003 -0.008,0.006 -0.012,0.01l-0.451,0.365c-0.004,0.003 -0.008,0.006 -0.012,0.009l-0.451,0.361c-0.004,0.003 -0.008,0.006 -0.012,0.009l-0.451,0.356c-0.004,0.003 -0.008,0.006 -0.012,0.009l-0.451,0.351c-0.004,0.004 -0.009,0.007 -0.013,0.01l-0.451,0.346c-0.004,0.003 -0.008,0.007 -0.012,0.01l-0.451,0.342c-0.004,0.003 -0.008,0.006 -0.012,0.009l-0.451,0.337c-0.004,0.003 -0.008,0.006 -0.012,0.009l-0.451,0.334c-0.004,0.003 -0.008,0.006 -0.012,0.009l-0.452,0.329c-0.004,0.003 -0.008,0.006 -0.012,0.008l-0.451,0.325c-0.004,0.003 -0.008,0.006 -0.012,0.009l-0.451,0.32c-0.004,0.003 -0.008,0.006 -0.012,0.009l-0.451,0.316c-0.004,0.003 -0.008,0.006 -0.012,0.009l-0.452,0.312c-0.004,0.003 -0.008,0.006 -0.012,0.008l-0.451,0.309c-0.004,0.002 -0.008,0.005 -0.012,0.008l-0.451,0.304c-0.004,0.003 -0.008,0.006 -0.012,0.008l-0.451,0.301c-0.004,0.002 -0.008,0.005 -0.012,0.008l-0.451,0.296c-0.004,0.003 -0.009,0.005 -0.013,0.008l-0.451,0.293c-0.004,0.002 -0.008,0.005 -0.012,0.007l-0.451,0.289c-0.004,0.003 -0.008,0.005 -0.012,0.008l-0.451,0.285c-0.004,0.003 -0.008,0.005 -0.012,0.008l-0.451,0.281c-0.004,0.002 -0.008,0.005 -0.012,0.007l-0.451,0.278c-0.004,0.003 -0.008,0.005 -0.012,0.008l-0.451,0.274c-0.004,0.002 -0.008,0.005 -0.012,0.007l-0.451,0.271c-0.004,0.002 -0.008,0.004 -0.012,0.007l-0.451,0.267c-0.004,0.002 -0.008,0.005 -0.012,0.007l-0.451,0.264c-0.004,0.002 -0.008,0.004 -0.012,0.006l-0.451,0.261c-0.004,0.002 -0.008,0.004 -0.012,0.006l-0.451,0.257c-0.004,0.003 -0.008,0.005 -0.012,0.007l-0.451,0.254c-0.004,0.002 -0.008,0.004 -0.012,0.006l-0.451,0.25c-0.004,0.003 -0.008,0.005 -0.012,0.007l-0.451,0.247c-0.004,0.002 -0.008,0.004 -0.011,0.006l-0.452,0.244c-0.003,0.002 -0.007,0.004 -0.011,0.006l-0.451,0.241c-0.004,0.002 -0.008,0.004 -0.012,0.006l-0.451,0.238c-0.004,0.002 -0.008,0.004 -0.011,0.006l-0.451,0.234c-0.004,0.002 -0.008,0.004 -0.012,0.006l-0.451,0.232c-0.004,0.002 -0.008,0.004 -0.011,0.006l-0.451,0.228c-0.004,0.002 -0.008,0.004 -0.012,0.006l-0.451,0.225c-0.004,0.002 -0.007,0.004 -0.011,0.006l-0.451,0.223c-0.004,0.001 -0.008,0.003 -0.011,0.005l-0.452,0.22c-0.003,0.002 -0.007,0.003 -0.011,0.005l-0.451,0.217c-0.008,0.004 -0.016,0.008 -0.024,0.011c-0.216,0.101 -0.445,0.17 -0.68,0.204l-0.8,0.239l1.018,-0.223l-1.469,0.435l-0.146,-0.663c-0,-0.001 -0.001,-0.001 -0.002,-0.002l0.148,0.665l1.007,-0.219l-1.458,0.427l-0.274,-1.26c-0.001,-0.001 -0.003,-0.002 -0.004,-0.004l0.278,1.264l0.996,-0.213l-1.447,0.419Z" style="fill:#a13d00;"/>
    <path d="M-1.482,259l1.018,0l1.018,-2.441l1.018,-3.99l1.017,-3.982l1.018,-3.969l1.018,-3.953l1.017,-3.932l1.018,-3.905l1.018,-3.876l1.018,-3.84l1.017,-3.801l1.018,-3.757l1.018,-3.71l1.017,-3.658l1.018,-3.602l1.018,-3.542l1.018,-3.478l1.017,-3.411l1.018,-3.34l1.018,-3.266l1.017,-3.188l1.018,-3.108l1.018,-3.024l1.018,-2.937l1.017,-2.848l1.018,-2.756l1.018,-2.663l1.017,-2.566l1.018,-2.467l1.018,-2.368l1.018,-2.265l1.017,-2.163l1.018,-2.058l1.018,-1.952l1.017,-1.846l1.018,-1.738l1.018,-1.63l1.018,-1.521l1.017,-1.413l1.018,-1.304l1.018,-1.195l1.017,-1.087l1.018,-0.979l1.018,-0.871l1.018,-0.765l1.017,-0.659l1.018,-0.554l1.018,-0.451l1.017,-0.348l1.018,-0.247l1.018,-0.149l1.018,-0.05l1.017,0.045l1.018,0.138l1.018,0.231l1.017,0.32l1.018,0.407l1.018,0.492l1.018,0.575l1.017,0.655l1.018,0.733l1.018,0.807l1.017,0.88l1.018,0.949l1.018,1.016l1.018,1.08l1.017,1.141l1.018,1.199l1.018,1.255l1.017,1.307l1.018,1.357l1.018,1.404l1.018,1.448l1.017,1.488l1.018,1.527l1.018,1.562l1.017,1.595l1.018,1.625l1.018,1.651l1.017,1.676l1.018,1.697l1.018,1.717l1.018,1.733l1.017,1.747l1.018,1.758l1.018,1.768l1.017,1.774l1.018,1.779l1.018,1.781l1.018,1.782l1.017,1.779l1.018,1.776l1.018,1.77l1.017,1.763l1.018,1.753l1.018,1.742l1.018,1.729l1.017,1.716l1.018,1.699l1.018,1.683l1.017,1.665l1.018,1.645l1.018,1.624l1.018,1.603l1.017,1.58l1.018,1.556l1.018,1.532l1.017,1.507l1.018,1.481l1.018,1.454l1.018,1.428l1.017,1.399l1.018,1.372l1.018,1.343l1.017,1.314l1.018,1.286l1.018,1.256l1.018,1.226l1.017,1.197l1.018,1.168l1.018,1.138l1.017,1.109l1.018,1.079l1.018,1.05l1.018,1.02l1.017,0.992l1.018,0.963l1.018,0.935l1.017,0.906l1.018,0.879l1.018,0.851l1.018,0.824l1.017,0.798l1.018,0.771l1.018,0.745l1.017,0.72l1.018,0.695l1.018,0.671l1.018,0.647l1.017,0.623l1.018,0.6l1.018,0.579l1.017,0.556l1.018,0.535l1.018,0.514l1.018,0.494l1.017,0.475l1.018,0.455l1.018,0.436l1.017,0.419l1.018,0.401l1.018,0.384l1.018,0.368l1.017,0.352l1.018,0.336l1.018,0.321l1.017,0.308l1.018,0.293l1.018,0.279l1.018,0.267l1.017,0.255l1.018,0.242l1.018,0.231l1.017,0.22l1.018,0.209l1.018,0.198l1.018,0.189l1.017,0.18l1.018,0.17l1.018,0.162l1.017,0.154l1.018,0.145l1.018,0.138l1.018,0.131l1.017,0.123l1.018,0.117l1.018,0.111l1.017,0.105l1.018,0.099l1.018,0.093l1.018,0.089l1.017,0.083l1.018,0.078l1.018,0.074l1.017,0.07l1.018,0.066" style="fill:#00a6e3;fill-rule:nonzero;"/>
    <path d="M50.92,137c-0,-1.341 1.088,-2.429 2.429,-2.429c1.341,-0 2.429,1.088 2.429,2.429l0,124.429c0,1.341 -1.088,2.429 -2.429,2.429c-1.341,0 -2.429,-1.088 -2.429,-2.429l-0,-124.429Z" style="fill:#fff;fill-opacity:0.5;"/>
    <path d="M38.92,139.5c-0,-1.341 1.088,-2.429 2.429,-2.429c1.341,-0 2.429,1.088 2.429,2.429l0,126.429c0,1.341 -1.088,2.429 -2.429,2.429c-1.341,0 -2.429,-1.088 -2.429,-2.429l-0,-126.429Z" style="fill:#fff;fill-opacity:0.5;"/>
    <path d="M66.92,147.5c-0,-1.341 1.088,-2.429 2.429,-2.429c1.341,-0 2.429,1.088 2.429,2.429l0,126.429c0,1.341 -1.088,2.429 -2.429,2.429c-1.341,0 -2.429,-1.088 -2.429,-2.429l-0,-126.429Z" style="fill:#fff;fill-opacity:0.5;"/>
    <path d="M27.077,162c-0,-1.341 1.088,-2.429 2.429,-2.429c1.34,-0 2.429,1.088 2.429,2.429l-0,178.929c-0,1.341 -1.089,2.429 -2.429,2.429c-1.341,0 -2.429,-1.088 -2.429,-2.429l-0,-178.929Z" style="fill:#fff;fill-opacity:0.5;"/>
    <path d="M-2.118,256.655l0.362,-0.868l0.974,-3.818l1.018,-3.983l1.018,-3.972l0.001,-0.002l1.017,-3.953l0.001,-0.003l1.018,-3.932l0.001,-0.003l1.017,-3.906l0.002,-0.004l1.017,-3.876l0.002,-0.005l1.017,-3.84l0.002,-0.006l1.018,-3.801l0.002,-0.007l1.017,-3.757l0.002,-0.008l1.018,-3.71l0.002,-0.008l1.018,-3.658l0.003,-0.009l1.017,-3.602l0.003,-0.01l1.018,-3.542l0.003,-0.012l1.018,-3.478c0.001,-0.004 0.003,-0.008 0.004,-0.012l1.017,-3.411c0.002,-0.005 0.003,-0.009 0.005,-0.014l1.017,-3.34c0.002,-0.005 0.003,-0.01 0.005,-0.015l1.018,-3.266c0.001,-0.005 0.003,-0.01 0.005,-0.016l1.017,-3.188c0.002,-0.006 0.004,-0.012 0.006,-0.017l1.018,-3.108c0.002,-0.006 0.004,-0.012 0.006,-0.019l1.018,-3.024c0.002,-0.006 0.004,-0.013 0.007,-0.02l1.017,-2.937c0.003,-0.008 0.005,-0.015 0.008,-0.022l1.018,-2.848c0.003,-0.008 0.006,-0.016 0.008,-0.024l1.018,-2.757c0.003,-0.008 0.007,-0.017 0.01,-0.026l1.018,-2.662c0.003,-0.009 0.007,-0.019 0.011,-0.028l1.017,-2.566c0.004,-0.01 0.009,-0.021 0.013,-0.031l1.017,-2.467c0.005,-0.011 0.01,-0.022 0.014,-0.034l1.018,-2.367c0.005,-0.012 0.011,-0.024 0.016,-0.036l1.018,-2.266c0.006,-0.013 0.012,-0.026 0.018,-0.039l1.017,-2.162c0.007,-0.015 0.014,-0.029 0.021,-0.043l1.018,-2.058c0.007,-0.015 0.015,-0.03 0.023,-0.046l1.018,-1.952c0.008,-0.017 0.017,-0.033 0.027,-0.05l1.017,-1.846c0.01,-0.018 0.021,-0.036 0.031,-0.054l1.018,-1.738c0.011,-0.02 0.023,-0.04 0.036,-0.059l1.017,-1.63c0.014,-0.022 0.028,-0.043 0.042,-0.064l1.017,-1.522c0.016,-0.023 0.032,-0.046 0.049,-0.069l1.017,-1.413c0.018,-0.025 0.037,-0.05 0.056,-0.074l1.018,-1.305c0.021,-0.027 0.043,-0.053 0.065,-0.08l1.018,-1.195c0.025,-0.029 0.05,-0.058 0.077,-0.086l1.017,-1.087c0.029,-0.03 0.059,-0.061 0.089,-0.09l1.018,-0.979c0.034,-0.032 0.069,-0.064 0.104,-0.094l1.018,-0.872c0.039,-0.033 0.079,-0.065 0.121,-0.096l1.017,-0.765c0.046,-0.034 0.092,-0.067 0.139,-0.097l1.018,-0.659c0.052,-0.034 0.105,-0.065 0.159,-0.094l1.017,-0.555c0.059,-0.031 0.118,-0.061 0.179,-0.087l1.017,-0.451c0.065,-0.028 0.131,-0.054 0.197,-0.077l1.018,-0.348c0.07,-0.024 0.141,-0.045 0.212,-0.062l1.018,-0.248c0.074,-0.018 0.149,-0.032 0.224,-0.043l1.018,-0.148c0.076,-0.011 0.152,-0.019 0.229,-0.023l1.018,-0.05c0.076,-0.004 0.152,-0.004 0.228,-0.001l1.017,0.045c0.074,0.003 0.148,0.01 0.221,0.02l1.018,0.139c0.07,0.009 0.139,0.022 0.208,0.037l1.018,0.231c0.065,0.014 0.129,0.032 0.192,0.052l1.018,0.32c0.059,0.018 0.117,0.039 0.174,0.062l1.018,0.407c0.052,0.021 0.104,0.044 0.155,0.068l1.017,0.493c0.047,0.022 0.093,0.046 0.137,0.071l1.018,0.575c0.041,0.023 0.081,0.047 0.12,0.072l1.018,0.655c0.035,0.023 0.07,0.047 0.104,0.071l1.018,0.733c0.031,0.022 0.061,0.045 0.091,0.069l1.017,0.807c0.027,0.021 0.053,0.043 0.079,0.065l1.018,0.88c0.023,0.02 0.046,0.04 0.068,0.061l1.018,0.949c0.02,0.019 0.04,0.038 0.059,0.058l1.018,1.015c0.017,0.018 0.035,0.036 0.052,0.054l1.017,1.08c0.016,0.016 0.031,0.032 0.045,0.049l1.018,1.141c0.013,0.015 0.026,0.03 0.039,0.045l1.018,1.199c0.012,0.014 0.023,0.028 0.035,0.042l1.017,1.255c0.01,0.012 0.021,0.025 0.03,0.038l1.018,1.307c0.009,0.011 0.018,0.023 0.027,0.035l1.017,1.357c0.008,0.01 0.016,0.021 0.024,0.031l1.017,1.404c0.007,0.01 0.014,0.019 0.021,0.029l1.018,1.448c0.006,0.008 0.012,0.017 0.018,0.026l1.018,1.488c0.005,0.008 0.01,0.016 0.016,0.024l1.017,1.527c0.005,0.007 0.01,0.014 0.014,0.021l1.018,1.563c0.004,0.006 0.008,0.012 0.012,0.019l1.018,1.594c0.004,0.006 0.007,0.012 0.011,0.018l1.018,1.624c0.003,0.005 0.006,0.01 0.009,0.015l1.018,1.652c0.003,0.004 0.005,0.009 0.008,0.013l1.018,1.676c0.002,0.004 0.005,0.008 0.007,0.012l1.018,1.697l0.006,0.011l1.017,1.716l0.006,0.009l1.017,1.733l0.005,0.007l1.017,1.747l0.004,0.006l1.017,1.759l0.003,0.004l1.018,1.768l0.002,0.003l1.018,1.775l0.001,0.002l1.018,1.779l1.018,1.782l1.018,1.781l1.016,1.778l1.017,1.774l1.016,1.766l1.015,1.758l1.014,1.748l1.014,1.736l1.014,1.722l1.013,1.708l1.012,1.691l1.012,1.673l1.012,1.654l1.01,1.634l1.011,1.612l1.009,1.59l1.009,1.566l1.008,1.543l1.008,1.516l1.007,1.491l1.006,1.465l1.006,1.437l1.005,1.409l1.004,1.381l1.004,1.353l1.002,1.323l1.002,1.294l1.001,1.264l1,1.234l1,1.205l0.998,1.175l0.998,1.144l0.997,1.115l0.996,1.085l0.995,1.055l0.994,1.026l0.993,0.996l0.993,0.967l0.991,0.938l0.991,0.91l0.99,0.882l0.989,0.854l0.989,0.826l0.987,0.8l0.987,0.773l0.986,0.748l0.986,0.722l0.985,0.696l0.985,0.673l0.984,0.648l0.984,0.626l0.983,0.602l0.983,0.58l0.983,0.559l0.983,0.537l0.983,0.517l0.983,0.496l0.983,0.478l0.983,0.458l0.984,0.44l0.984,0.422l0.984,0.405l0.984,0.388l0.986,0.372l0.985,0.356l0.986,0.34l0.987,0.327l0.987,0.311l0.989,0.299l0.988,0.284l0.99,0.272l0.99,0.26l0.991,0.248l0.992,0.236l0.993,0.225l0.993,0.215l0.994,0.204l0.995,0.194l0.996,0.185l0.997,0.176l0.997,0.167l0.999,0.159l0.998,0.15l1,0.143l1.001,0.136l1.001,0.128l1.002,0.122l1.002,0.115l1.003,0.11l1.004,0.103l1.005,0.097l1.005,0.093l1.006,0.087l1.006,0.082l1.007,0.078l1.007,0.073l1.008,0.069l1.013,0.066c1.338,0.086 2.354,1.243 2.267,2.581c-0.086,1.337 -1.243,2.353 -2.58,2.267l-1.018,-0.066l-0.01,-0l-1.017,-0.07l-0.011,-0.001l-1.017,-0.074l-0.011,-0.001l-1.018,-0.078l-0.011,-0.001l-1.018,-0.083l-0.011,-0.001l-1.018,-0.089c-0.004,0 -0.008,-0 -0.012,-0.001l-1.018,-0.093c-0.004,-0.001 -0.009,-0.001 -0.013,-0.001l-1.018,-0.099c-0.004,-0.001 -0.009,-0.001 -0.013,-0.002l-1.018,-0.104c-0.005,-0.001 -0.009,-0.001 -0.014,-0.002l-1.018,-0.111c-0.005,-0 -0.01,-0.001 -0.015,-0.001l-1.017,-0.117c-0.005,-0.001 -0.011,-0.002 -0.016,-0.002l-1.018,-0.124c-0.005,-0.001 -0.01,-0.001 -0.016,-0.002l-1.017,-0.131c-0.006,-0 -0.012,-0.001 -0.017,-0.002l-1.018,-0.138c-0.006,-0.001 -0.012,-0.001 -0.018,-0.002l-1.017,-0.146c-0.007,-0.001 -0.013,-0.002 -0.019,-0.002l-1.017,-0.154c-0.007,-0.001 -0.013,-0.002 -0.02,-0.003l-1.017,-0.162c-0.007,-0.001 -0.014,-0.002 -0.02,-0.003l-1.018,-0.17c-0.007,-0.002 -0.014,-0.003 -0.021,-0.004l-1.017,-0.179c-0.008,-0.002 -0.015,-0.003 -0.022,-0.004l-1.018,-0.189c-0.007,-0.002 -0.014,-0.003 -0.022,-0.005l-1.018,-0.198c-0.007,-0.002 -0.015,-0.003 -0.023,-0.005l-1.017,-0.209c-0.008,-0.002 -0.016,-0.003 -0.024,-0.005l-1.018,-0.22c-0.008,-0.002 -0.016,-0.003 -0.025,-0.005l-1.017,-0.231c-0.009,-0.002 -0.017,-0.004 -0.026,-0.006l-1.017,-0.242c-0.009,-0.002 -0.018,-0.005 -0.027,-0.007l-1.017,-0.254c-0.009,-0.002 -0.018,-0.005 -0.027,-0.007l-1.018,-0.267c-0.009,-0.002 -0.019,-0.005 -0.028,-0.007l-1.018,-0.28c-0.009,-0.003 -0.019,-0.005 -0.028,-0.008l-1.018,-0.293c-0.01,-0.003 -0.019,-0.006 -0.029,-0.009l-1.018,-0.307c-0.01,-0.003 -0.02,-0.006 -0.03,-0.009l-1.018,-0.322c-0.01,-0.003 -0.02,-0.006 -0.03,-0.01l-1.018,-0.336c-0.01,-0.003 -0.021,-0.007 -0.031,-0.01l-1.018,-0.352c-0.011,-0.004 -0.021,-0.008 -0.032,-0.011l-1.017,-0.368c-0.011,-0.004 -0.022,-0.008 -0.033,-0.012l-1.018,-0.384c-0.011,-0.004 -0.022,-0.009 -0.032,-0.013l-1.018,-0.401c-0.011,-0.004 -0.022,-0.009 -0.034,-0.013l-1.017,-0.419c-0.012,-0.005 -0.023,-0.009 -0.034,-0.014l-1.018,-0.437c-0.011,-0.005 -0.023,-0.01 -0.034,-0.015l-1.018,-0.455c-0.011,-0.005 -0.022,-0.01 -0.034,-0.016l-1.018,-0.474c-0.011,-0.005 -0.023,-0.011 -0.034,-0.017l-1.018,-0.494c-0.012,-0.005 -0.023,-0.011 -0.035,-0.017l-1.017,-0.514c-0.012,-0.006 -0.024,-0.012 -0.035,-0.018l-1.018,-0.535c-0.011,-0.006 -0.023,-0.012 -0.035,-0.019l-1.017,-0.556c-0.012,-0.006 -0.024,-0.013 -0.035,-0.019l-1.018,-0.578c-0.011,-0.007 -0.023,-0.014 -0.034,-0.02l-1.018,-0.601c-0.012,-0.007 -0.023,-0.014 -0.034,-0.021l-1.018,-0.623c-0.012,-0.007 -0.023,-0.014 -0.034,-0.021l-1.018,-0.647c-0.011,-0.007 -0.023,-0.014 -0.034,-0.022l-1.017,-0.671c-0.012,-0.007 -0.023,-0.014 -0.034,-0.022l-1.018,-0.695c-0.011,-0.008 -0.022,-0.015 -0.032,-0.023l-1.018,-0.72c-0.011,-0.008 -0.022,-0.015 -0.033,-0.023l-1.017,-0.746c-0.011,-0.007 -0.021,-0.015 -0.032,-0.023l-1.018,-0.771c-0.01,-0.008 -0.021,-0.016 -0.031,-0.024l-1.018,-0.798c-0.01,-0.008 -0.02,-0.016 -0.03,-0.024l-1.018,-0.824c-0.01,-0.008 -0.02,-0.016 -0.03,-0.025l-1.017,-0.851c-0.01,-0.008 -0.02,-0.016 -0.029,-0.025l-1.018,-0.878c-0.009,-0.008 -0.019,-0.017 -0.028,-0.025l-1.018,-0.906c-0.009,-0.009 -0.018,-0.017 -0.027,-0.025l-1.018,-0.935c-0.009,-0.008 -0.018,-0.016 -0.027,-0.025l-1.017,-0.963c-0.009,-0.008 -0.017,-0.016 -0.026,-0.024l-1.018,-0.992c-0.008,-0.008 -0.016,-0.016 -0.025,-0.025l-1.017,-1.02c-0.008,-0.008 -0.016,-0.016 -0.024,-0.025l-1.018,-1.049c-0.008,-0.008 -0.015,-0.017 -0.023,-0.025l-1.018,-1.079c-0.007,-0.008 -0.015,-0.016 -0.022,-0.024l-1.018,-1.108c-0.007,-0.008 -0.014,-0.016 -0.021,-0.024l-1.018,-1.138c-0.007,-0.007 -0.013,-0.015 -0.02,-0.023l-1.018,-1.168c-0.006,-0.007 -0.013,-0.015 -0.019,-0.022l-1.018,-1.197c-0.006,-0.008 -0.013,-0.015 -0.019,-0.023l-1.018,-1.226c-0.006,-0.008 -0.012,-0.015 -0.017,-0.022l-1.018,-1.256c-0.006,-0.007 -0.012,-0.014 -0.017,-0.022l-1.018,-1.285c-0.005,-0.007 -0.011,-0.014 -0.016,-0.021l-1.018,-1.314c-0.005,-0.007 -0.01,-0.013 -0.015,-0.02l-1.018,-1.343c-0.005,-0.007 -0.01,-0.013 -0.015,-0.02l-1.017,-1.371c-0.005,-0.007 -0.01,-0.013 -0.014,-0.019l-1.018,-1.4c-0.004,-0.006 -0.009,-0.012 -0.013,-0.018l-1.018,-1.427c-0.004,-0.006 -0.008,-0.012 -0.012,-0.018l-1.018,-1.454c-0.004,-0.006 -0.008,-0.011 -0.012,-0.017l-1.017,-1.481c-0.004,-0.005 -0.008,-0.011 -0.012,-0.016l-1.017,-1.507c-0.004,-0.005 -0.007,-0.01 -0.011,-0.016l-1.017,-1.532c-0.004,-0.004 -0.007,-0.009 -0.01,-0.014l-1.018,-1.557c-0.003,-0.004 -0.006,-0.009 -0.009,-0.014l-1.018,-1.58c-0.002,-0.004 -0.005,-0.009 -0.008,-0.013l-1.018,-1.603c-0.002,-0.004 -0.005,-0.008 -0.008,-0.012l-1.017,-1.625c-0.003,-0.004 -0.005,-0.008 -0.008,-0.011l-1.017,-1.645c-0.003,-0.004 -0.005,-0.008 -0.007,-0.011l-1.018,-1.665l-0.006,-0.01l-1.018,-1.683l-0.005,-0.009l-1.018,-1.7l-0.005,-0.008l-1.017,-1.715l-0.005,-0.008l-1.018,-1.729l-0.004,-0.007l-1.017,-1.742l-0.004,-0.006l-1.017,-1.753l-0.003,-0.005l-1.018,-1.762l-0.002,-0.004l-1.018,-1.77l-0.001,-0.003l-1.018,-1.776l-0.001,-0.002l-1.018,-1.779l-1.018,-1.783l-1.018,-1.78l-1.016,-1.777l-1.016,-1.772l-1.016,-1.763l-1.014,-1.753l-1.014,-1.741l-1.013,-1.725l-1.012,-1.707l-1.011,-1.686l-1.01,-1.663l-1.009,-1.637l-1.008,-1.609l-1.006,-1.576l-1.004,-1.542l-1.003,-1.505l-1.001,-1.463l-0.998,-1.421l-0.996,-1.373l-0.993,-1.324l-0.989,-1.271l-0.986,-1.215l-0.981,-1.156l-0.975,-1.094l-0.97,-1.028l-0.962,-0.961l-0.954,-0.89l-0.944,-0.816l-0.933,-0.74l-0.92,-0.662l-0.906,-0.583l-0.89,-0.503l-0.871,-0.421l-0.853,-0.342l-0.835,-0.262l-0.817,-0.185l-0.803,-0.109l-0.793,-0.035l-0.788,0.039l-0.791,0.115l-0.799,0.194l-0.813,0.278l-0.83,0.368l-0.849,0.462l-0.869,0.563l-0.888,0.667l-0.906,0.775l-0.921,0.886l-0.935,0.999l-0.947,1.112l-0.957,1.227l-0.966,1.34l-0.973,1.455l-0.979,1.569l-0.985,1.681l-0.988,1.793l-0.993,1.904l-0.996,2.014l-0.998,2.121l-1.001,2.229l-1.003,2.333l-1.005,2.435l-1.006,2.537l-1.007,2.635l-1.009,2.731l-1.009,2.825l-1.01,2.916l-1.012,3.005l-1.011,3.089l-1.013,3.172l-1.013,3.25l-1.013,3.326l-1.014,3.398l-1.014,3.467l-1.015,3.531l-1.015,3.592l-1.015,3.649l-1.015,3.702l-1.016,3.75l-1.016,3.794l-1.016,3.835l-1.017,3.87l-1.016,3.902l-1.017,3.928l-1.017,3.95l-1.018,3.968l-1.017,3.98l-1.017,3.989c-0.03,0.114 -0.067,0.226 -0.112,0.334l-1.018,2.442c-0.377,0.905 -1.261,1.494 -2.242,1.494l-1.018,0c-1.34,0 -2.429,-1.088 -2.429,-2.429c0,-1.12 0.76,-2.065 1.793,-2.345Z" style="fill:#0062e3;"/>
    <path d="M107.506,258.762l0.56,-0.023l0.561,-0.024l0.56,-0.026l0.561,-0.028l0.561,-0.03l0.56,-0.033l0.561,-0.035l0.561,-0.037l0.56,-0.041l0.561,-0.043l0.56,-0.047l0.561,-0.05l0.561,-0.054l0.56,-0.058l0.561,-0.062l0.56,-0.066l0.561,-0.071l0.561,-0.076l0.56,-0.081l0.561,-0.086l0.561,-0.093l0.56,-0.099l0.561,-0.105l0.56,-0.112l0.561,-0.12l0.561,-0.127l0.56,-0.136l0.561,-0.144l0.56,-0.153l0.561,-0.162l0.561,-0.173l0.56,-0.183l0.561,-0.194l0.561,-0.206l0.56,-0.218l0.561,-0.231l0.56,-0.244l0.561,-0.258l0.561,-0.272l0.56,-0.288l0.561,-0.303l0.56,-0.321l0.561,-0.337l0.561,-0.355l0.56,-0.374l0.561,-0.394l0.56,-0.414l0.561,-0.434l0.561,-0.457l0.56,-0.479l0.561,-0.502l0.561,-0.527l0.56,-0.551l0.561,-0.577l0.56,-0.604l0.561,-0.632l0.561,-0.66l0.56,-0.689l0.561,-0.718l0.56,-0.75l0.561,-0.782l0.561,-0.813l0.56,-0.847l0.561,-0.882l0.561,-0.915l0.56,-0.952l0.561,-0.988l0.56,-1.025l0.561,-1.062l0.561,-1.101l0.56,-1.14l0.561,-1.18l0.56,-1.22l0.561,-1.26l0.561,-1.302l0.56,-1.343l0.561,-1.385l0.561,-1.428l0.56,-1.47l0.561,-1.513l0.56,-1.556l0.561,-1.599l0.561,-1.642l0.56,-1.685l0.561,-1.729l0.56,-1.771l0.561,-1.813l0.561,-1.856l0.56,-1.898l0.561,-1.938l0.561,-1.98l0.56,-2.019l0.561,-2.059l0.56,-2.097l0.561,-2.134l0.561,-2.171l0.56,-2.206l0.561,-2.24l0.56,-2.273l0.561,-2.304l0.561,-2.334l0.56,-2.362l0.561,-2.388l0.561,-2.413l0.56,-2.436l0.561,-2.456l0.56,-2.475l0.561,-2.492l0.561,-2.506l0.56,-2.518l0.561,-2.527l0.56,-2.535l0.561,-2.539l0.561,-2.541l0.56,-2.54l0.561,-2.536l0.56,-2.531l0.561,-2.521l0.561,-2.508l0.56,-2.494l0.561,-2.476l0.561,-2.454l0.56,-2.431l0.561,-2.403l0.56,-2.373l0.561,-2.34l0.561,-2.303l0.56,-2.264l0.561,-2.221l0.56,-2.176l0.561,-2.128l0.561,-2.075l0.56,-2.022l0.561,-1.964l0.561,-1.904l0.56,-1.841l0.561,-1.775l0.56,-1.707l0.561,-1.636l0.561,-1.563l0.56,-1.488l0.561,-1.41l0.56,-1.33l0.561,-1.247l0.561,-1.164l0.56,-1.078l0.561,-0.991l0.561,-0.901l0.56,-0.811l0.561,-0.72l0.56,-0.626l0.561,-0.533l0.561,-0.439l0.56,-0.342l0.561,-0.247l0.56,-0.151l0.561,-0.054l0.561,0.042l0.56,0.139l0.561,0.236l0.561,0.331l0.56,0.427l0.561,0.521l0.56,0.615l0.561,0.709l0.561,0.8l0.56,0.891l0.561,0.979l0.56,1.068l0.561,1.153l0.561,1.238l0.56,1.32l0.561,1.4l0.56,1.478l0.561,1.555l0.561,1.627l0.56,1.699l0.561,1.767l0.561,1.833l0.56,1.897l0.561,1.957l0.56,2.014l0.561,2.069l0.561,2.122l0.56,2.17l0.561,2.216l0.56,2.259l0.561,2.298l0.561,2.336l0.56,2.369l0.561,2.4l0.561,2.427l0.56,2.452l0.561,2.473l0.56,2.492l0.561,2.507l0.561,2.52l0.56,2.529l0.561,2.536l0.56,2.54l0.561,2.541l0.561,2.539l0.56,2.535l0.561,2.529l0.561,2.519l0.56,2.507l0.561,2.494l0.56,2.477l0.561,2.459l0.561,2.438l0.56,2.416l0.561,2.392l0.56,2.365l0.561,2.337l0.561,2.308l0.56,2.276l0.561,2.245l0.561,2.21l0.56,2.175l0.561,2.139l0.56,2.101l0.561,2.064l0.561,2.024l0.56,1.984l0.561,1.944l0.56,1.903l0.561,1.86l0.561,1.819l0.56,1.776l0.561,1.734l0.56,1.69l0.561,1.648l0.561,1.604l0.56,1.561l0.561,1.518l0.561,1.476l0.56,1.432l0.561,1.391l0.56,1.348l0.561,1.307l0.561,1.265l0.56,1.225l0.561,1.184l0.56,1.145l0.561,1.106l0.561,1.067l0.56,1.029l0.561,0.992l0.561,0.956l0.56,0.921l0.561,0.885l0.56,0.851l0.561,0.818l0.561,0.785l0.56,0.753l0.561,0.723l0.56,0.693l0.561,0.663l0.561,0.635l0.56,0.607l0.561,0.58l0.561,0.555l0.56,0.53l0.561,0.505l0.56,0.482l0.561,0.459l0.561,0.437l0.56,0.416l0.561,0.396l0.56,0.377l0.561,0.357l0.561,0.34l0.56,0.322l0.561,0.305l0.561,0.29l0.56,0.274l0.561,0.26l0.56,0.245l0.561,0.233l0.561,0.219l0.56,0.207l0.561,0.196l0.56,0.184l0.561,0.174l0.561,0.164l0.56,0.154l0.561,0.145l0.56,0.137l0.561,0.128l0.561,0.121l0.56,0.113l0.561,0.106l0.561,0.099l0.56,0.094l0.561,0.087l0.56,0.082l0.561,0.076l0.561,0.072l0.56,0.067l0.561,0.062l0.56,0.058l0.561,0.054l0.561,0.051l0.56,0.047l0.561,0.044l0.561,0.041l0.56,0.038l0.561,0.035l0.56,0.033l0.561,0.031l0.561,0.028l0.56,0.026l0.561,0.024l0.56,0.023l0.561,0.021l0.561,0.019l0.56,0.018l0.561,0.016l0.561,0.016l0.56,0.014l0.561,0.013l0.56,0.012l0.561,0.011l0.561,0.01l0.56,0.009l0.561,0.009l0.56,0.008l0.561,0.007l0.561,0.007l0.56,0.006l0.561,0.005l0.561,0.005l0.56,0.005l0.561,0.005l0.56,0.003l0.561,0.004l0.561,0.003l0.56,0.003l0.561,0.003l0.56,0.003l0.561,0.002l0.561,0.002l0.56,0.002" style="fill:#85e300;fill-rule:nonzero;"/>
    <path d="M180.92,95c-0,-1.341 1.088,-2.429 2.429,-2.429c1.341,-0 2.429,1.088 2.429,2.429l0,178.929c0,1.341 -1.088,2.429 -2.429,2.429c-1.341,0 -2.429,-1.088 -2.429,-2.429l-0,-178.929Z" style="fill:#fff;fill-opacity:0.5;"/>
    <path d="M180.92,95c-0,-1.341 1.088,-2.429 2.429,-2.429c1.341,-0 2.429,1.088 2.429,2.429l0,178.929c0,1.341 -1.088,2.429 -2.429,2.429c-1.341,0 -2.429,-1.088 -2.429,-2.429l-0,-178.929Z" style="fill:#fff;fill-opacity:0.5;"/>
    <path d="M196.92,80c-0,-1.341 1.088,-2.429 2.429,-2.429c1.341,-0 2.429,1.088 2.429,2.429l0,193.929c0,1.341 -1.088,2.429 -2.429,2.429c-1.341,0 -2.429,-1.088 -2.429,-2.429l-0,-193.929Z" style="fill:#fff;fill-opacity:0.5;"/>
    <path d="M207.92,103.5c-0,-1.341 1.088,-2.429 2.429,-2.429c1.341,-0 2.429,1.088 2.429,2.429l0,193.929c0,1.341 -1.088,2.429 -2.429,2.429c-1.341,0 -2.429,-1.088 -2.429,-2.429l-0,-193.929Z" style="fill:#fff;fill-opacity:0.5;"/>
    <path d="M107.602,261.189c-1.339,0.053 -2.47,-0.991 -2.524,-2.331c-0.053,-1.339 0.991,-2.47 2.331,-2.524l0.557,-0.022l0.552,-0.024l0.553,-0.025l0.551,-0.028l0.551,-0.029l0.55,-0.032l0.55,-0.035l0.549,-0.036l0.548,-0.04l0.547,-0.043l0.546,-0.045l0.546,-0.049l0.544,-0.052l0.544,-0.056l0.542,-0.06l0.541,-0.064l0.541,-0.068l0.539,-0.073l0.538,-0.078l0.537,-0.083l0.535,-0.089l0.534,-0.094l0.533,-0.1l0.532,-0.106l0.53,-0.113l0.528,-0.12l0.528,-0.128l0.525,-0.135l0.525,-0.143l0.523,-0.152l0.522,-0.161l0.52,-0.17l0.52,-0.18l0.518,-0.19l0.517,-0.201l0.516,-0.212l0.515,-0.224l0.514,-0.237l0.514,-0.249l0.513,-0.264l0.513,-0.277l0.513,-0.293l0.512,-0.309l0.513,-0.325l0.513,-0.342l0.514,-0.36l0.514,-0.38l0.515,-0.399l0.516,-0.42l0.517,-0.442l0.518,-0.464l0.519,-0.488l0.521,-0.512l0.522,-0.538l0.524,-0.564l0.525,-0.592l0.527,-0.62l0.528,-0.649l0.53,-0.68l0.532,-0.711l0.533,-0.743l0.534,-0.776l0.537,-0.81l0.537,-0.845l0.539,-0.88l0.54,-0.917l0.542,-0.954l0.542,-0.992l0.544,-1.031l0.545,-1.07l0.546,-1.111l0.547,-1.15l0.548,-1.192l0.549,-1.234l0.549,-1.276l0.551,-1.318l0.55,-1.362l0.552,-1.404l0.552,-1.449l0.553,-1.492l0.554,-1.535l0.553,-1.58l0.555,-1.624l0.554,-1.668l0.556,-1.711l0.555,-1.755l0.556,-1.798l0.556,-1.841l0.557,-1.884l0.557,-1.926l0.557,-1.967l0.557,-2.007l0.557,-2.048l0.558,-2.086l0.558,-2.125l0.558,-2.161l0.559,-2.197l0.558,-2.232l0.559,-2.265l0.559,-2.297l0.559,-2.327l0.559,-2.356l0.559,-2.383l0.56,-2.407l0.559,-2.431l0.56,-2.453l0.56,-2.471l0.56,-2.489l0.56,-2.503l0.56,-2.516l0.56,-2.526l0.561,-2.533l0.56,-2.538l0.561,-2.541l0.56,-2.54l0.561,-2.538l0.561,-2.531l0.561,-2.523l0,-0.002l0.561,-2.509l0.001,-0.003l0.56,-2.494l0.001,-0.004l0.561,-2.475l0.001,-0.005l0.56,-2.454l0.002,-0.005l0.56,-2.431l0.002,-0.006l0.56,-2.403l0.002,-0.007l0.56,-2.373l0.002,-0.007l0.561,-2.34l0.002,-0.008l0.56,-2.304l0.003,-0.009l0.56,-2.264l0.003,-0.01l0.561,-2.222l0.003,-0.012l0.56,-2.175c0.001,-0.005 0.002,-0.009 0.004,-0.013l0.56,-2.128c0.001,-0.004 0.003,-0.009 0.004,-0.014l0.561,-2.076c0.001,-0.005 0.002,-0.01 0.004,-0.016l0.561,-2.021c0.001,-0.006 0.003,-0.012 0.004,-0.017l0.561,-1.964c0.002,-0.007 0.004,-0.013 0.006,-0.02l0.56,-1.904c0.002,-0.007 0.005,-0.014 0.007,-0.021l0.56,-1.841c0.003,-0.008 0.005,-0.016 0.008,-0.024l0.56,-1.775c0.003,-0.009 0.006,-0.018 0.009,-0.027l0.561,-1.707c0.003,-0.01 0.006,-0.02 0.009,-0.029l0.561,-1.637c0.004,-0.011 0.008,-0.022 0.011,-0.032l0.561,-1.564c0.004,-0.012 0.009,-0.024 0.014,-0.036l0.56,-1.488c0.005,-0.013 0.011,-0.027 0.016,-0.041l0.561,-1.409c0.006,-0.016 0.012,-0.031 0.018,-0.046l0.561,-1.33c0.007,-0.018 0.015,-0.035 0.023,-0.052l0.56,-1.248c0.009,-0.019 0.018,-0.039 0.028,-0.058l0.56,-1.164c0.011,-0.023 0.022,-0.045 0.034,-0.067l0.56,-1.078c0.013,-0.025 0.027,-0.05 0.041,-0.075l0.561,-0.991c0.016,-0.029 0.033,-0.058 0.051,-0.086l0.561,-0.902c0.02,-0.033 0.042,-0.066 0.064,-0.098l0.561,-0.811c0.026,-0.038 0.054,-0.076 0.082,-0.112l0.561,-0.72c0.033,-0.043 0.069,-0.085 0.105,-0.126l0.561,-0.627c0.044,-0.049 0.089,-0.096 0.137,-0.141l0.56,-0.533c0.057,-0.054 0.116,-0.105 0.178,-0.153l0.561,-0.438c0.073,-0.058 0.149,-0.11 0.228,-0.159l0.561,-0.343c0.092,-0.056 0.189,-0.107 0.288,-0.15l0.561,-0.247c0.112,-0.05 0.229,-0.091 0.348,-0.123l0.561,-0.151c0.13,-0.035 0.263,-0.059 0.397,-0.072l0.56,-0.054c0.139,-0.014 0.279,-0.015 0.418,-0.004l0.56,0.042c0.135,0.01 0.27,0.032 0.401,0.064l0.561,0.14c0.121,0.03 0.24,0.069 0.356,0.117l0.56,0.236c0.102,0.043 0.201,0.092 0.296,0.148l0.56,0.332c0.082,0.048 0.16,0.101 0.236,0.158l0.56,0.427c0.064,0.048 0.125,0.1 0.184,0.154l0.56,0.521c0.049,0.046 0.096,0.094 0.141,0.143l0.561,0.616c0.038,0.041 0.074,0.084 0.109,0.128l0.561,0.708c0.029,0.037 0.057,0.075 0.084,0.114l0.561,0.8c0.023,0.033 0.045,0.066 0.066,0.1l0.561,0.891c0.018,0.029 0.036,0.058 0.053,0.087l0.56,0.98c0.015,0.026 0.029,0.051 0.042,0.077l0.561,1.068c0.012,0.022 0.023,0.044 0.034,0.067l0.561,1.154c0.009,0.019 0.019,0.039 0.028,0.059l0.56,1.238c0.008,0.017 0.016,0.035 0.023,0.053l0.561,1.319c0.007,0.016 0.013,0.031 0.019,0.047l0.561,1.4c0.005,0.014 0.011,0.028 0.016,0.042l0.561,1.478c0.004,0.012 0.009,0.025 0.013,0.037l0.561,1.554c0.004,0.011 0.008,0.022 0.012,0.034l0.56,1.627c0.004,0.01 0.007,0.02 0.01,0.03l0.561,1.699c0.003,0.009 0.006,0.017 0.009,0.026l0.56,1.768c0.003,0.008 0.005,0.016 0.008,0.024l0.56,1.833c0.003,0.007 0.005,0.014 0.007,0.022l0.561,1.896c0.002,0.007 0.003,0.013 0.005,0.02l0.561,1.957c0.002,0.006 0.003,0.011 0.005,0.017l0.561,2.015c0.001,0.005 0.003,0.011 0.004,0.016l0.561,2.069c0.001,0.005 0.002,0.01 0.004,0.015l0.56,2.121c0.001,0.004 0.002,0.009 0.004,0.013l0.56,2.17c0.001,0.004 0.002,0.008 0.003,0.012l0.561,2.216l0.002,0.011l0.561,2.259l0.002,0.009l0.561,2.299l0.002,0.009l0.561,2.335l0.002,0.008l0.56,2.369l0.002,0.007l0.56,2.399l0.002,0.006l0.56,2.428l0.002,0.005l0.56,2.452l0.001,0.004l0.561,2.473l0.001,0.004l0.56,2.492l0.001,0.003l0.561,2.507l0,0.003l0.561,2.519l0.561,2.531l0.561,2.538l0.561,2.54l0.56,2.541l0.561,2.539l0.56,2.534l0.56,2.527l0.56,2.517l0.56,2.505l0.56,2.49l0.56,2.474l0.56,2.455l0.559,2.434l0.56,2.41l0.559,2.386l0.559,2.359l0.559,2.331l0.559,2.301l0.559,2.269l0.559,2.236l0.558,2.201l0.558,2.166l0.558,2.129l0.558,2.091l0.558,2.052l0.557,2.013l0.557,1.972l0.557,1.93l0.556,1.889l0.557,1.846l0.556,1.804l0.555,1.76l0.555,1.717l0.555,1.673l0.555,1.629l0.553,1.585l0.554,1.541l0.553,1.497l0.552,1.454l0.552,1.41l0.551,1.366l0.55,1.324l0.55,1.281l0.549,1.239l0.547,1.197l0.548,1.155l0.546,1.115l0.545,1.075l0.544,1.036l0.543,0.997l0.541,0.958l0.541,0.922l0.539,0.885l0.537,0.849l0.537,0.814l0.534,0.78l0.534,0.747l0.531,0.715l0.531,0.683l0.528,0.653l0.527,0.624l0.526,0.595l0.524,0.567l0.522,0.541l0.521,0.515l0.519,0.491l0.519,0.467l0.517,0.445l0.516,0.422l0.515,0.402l0.514,0.382l0.514,0.362l0.513,0.345l0.513,0.327l0.512,0.31l0.513,0.295l0.513,0.279l0.513,0.265l0.513,0.252l0.515,0.238l0.515,0.226l0.516,0.213l0.516,0.203l0.518,0.191l0.52,0.181l0.52,0.171l0.522,0.162l0.523,0.153l0.524,0.144l0.526,0.136l0.527,0.129l0.528,0.121l0.53,0.114l0.531,0.107l0.533,0.101l0.534,0.094l0.535,0.089l0.537,0.084l0.538,0.078l0.539,0.074l0.54,0.069l0.541,0.064l0.543,0.061l0.543,0.056l0.544,0.053l0.546,0.049l0.546,0.046l0.547,0.043l0.548,0.04l0.549,0.037l0.549,0.035l0.55,0.032l0.551,0.03l0.552,0.028l0.552,0.026l0.552,0.023l0.553,0.023l0.554,0.02l0.554,0.019l0.555,0.018l0.555,0.016l0.555,0.015l0.556,0.014l0.556,0.013l0.556,0.012l0.557,0.011l0.557,0.01l0.557,0.009l0.558,0.009l0.557,0.008l0.558,0.007l0.558,0.007l0.559,0.006l0.558,0.005l0.559,0.005l0.559,0.005l0.559,0.004l0.559,0.004l0.559,0.004l0.559,0.003l0.56,0.003l0.559,0.003l0.56,0.003l0.56,0.002l0.559,0.002l0.561,0.002c1.34,0.004 2.425,1.097 2.42,2.437c-0.004,1.341 -1.096,2.426 -2.437,2.421l-0.561,-0.002l-0.561,-0.002l-0.562,-0.002l-0.561,-0.003l-0.562,-0.002l-0.562,-0.004l-0.561,-0.003l-0.562,-0.003l-0.562,-0.004l-0.563,-0.005l-0.562,-0.004l-0.562,-0.006l-0.563,-0.005l-0.563,-0.006l-0.563,-0.007l-0.563,-0.007l-0.563,-0.008l-0.564,-0.009l-0.564,-0.009l-0.564,-0.011l-0.564,-0.011l-0.565,-0.012l-0.004,0l-0.561,-0.013l-0.005,0l-0.56,-0.014l-0.005,-0l-0.561,-0.015l-0.005,-0l-0.561,-0.017l-0.006,-0l-0.561,-0.018l-0.006,-0l-0.56,-0.019l-0.007,-0.001l-0.561,-0.021l-0.007,0l-0.561,-0.022l-0.007,-0.001l-0.561,-0.024l-0.008,-0l-0.561,-0.027l-0.009,0l-0.56,-0.028l-0.01,-0.001l-0.56,-0.03l-0.011,-0.001l-0.56,-0.033l-0.011,-0l-0.561,-0.036l-0.011,-0l-0.561,-0.038c-0.004,-0.001 -0.008,-0.001 -0.012,-0.001l-0.561,-0.041c-0.004,-0 -0.008,-0.001 -0.013,-0.001l-0.56,-0.044c-0.005,-0 -0.01,-0.001 -0.014,-0.001l-0.561,-0.047c-0.005,-0.001 -0.01,-0.001 -0.015,-0.002l-0.56,-0.05c-0.006,-0.001 -0.011,-0.001 -0.016,-0.002l-0.561,-0.054c-0.005,-0.001 -0.011,-0.001 -0.016,-0.002l-0.561,-0.058c-0.006,-0.001 -0.012,-0.001 -0.018,-0.002l-0.56,-0.062c-0.007,-0.001 -0.013,-0.002 -0.019,-0.002l-0.561,-0.067c-0.006,-0.001 -0.013,-0.002 -0.02,-0.003l-0.56,-0.071c-0.007,-0.001 -0.014,-0.002 -0.021,-0.003l-0.561,-0.076c-0.007,-0.001 -0.015,-0.002 -0.022,-0.004l-0.561,-0.081c-0.008,-0.001 -0.015,-0.003 -0.023,-0.004l-0.561,-0.087c-0.008,-0.001 -0.016,-0.003 -0.024,-0.004l-0.561,-0.093c-0.009,-0.002 -0.017,-0.003 -0.026,-0.005l-0.561,-0.099c-0.009,-0.002 -0.018,-0.004 -0.027,-0.005l-0.561,-0.106c-0.009,-0.002 -0.019,-0.004 -0.028,-0.006l-0.561,-0.113c-0.01,-0.002 -0.02,-0.004 -0.03,-0.006l-0.56,-0.121c-0.011,-0.002 -0.021,-0.005 -0.032,-0.007l-0.56,-0.128c-0.011,-0.003 -0.022,-0.005 -0.033,-0.008l-0.561,-0.136c-0.011,-0.003 -0.023,-0.006 -0.034,-0.009l-0.561,-0.145c-0.011,-0.003 -0.023,-0.006 -0.035,-0.01l-0.561,-0.154c-0.012,-0.003 -0.024,-0.007 -0.037,-0.01l-0.56,-0.164c-0.013,-0.004 -0.026,-0.008 -0.039,-0.012l-0.56,-0.174c-0.013,-0.004 -0.027,-0.008 -0.04,-0.012l-0.56,-0.185c-0.014,-0.004 -0.028,-0.009 -0.041,-0.014l-0.561,-0.195c-0.014,-0.005 -0.028,-0.01 -0.042,-0.015l-0.561,-0.207c-0.014,-0.006 -0.028,-0.011 -0.043,-0.017l-0.56,-0.219c-0.015,-0.006 -0.03,-0.012 -0.045,-0.018l-0.56,-0.232c-0.015,-0.007 -0.03,-0.013 -0.045,-0.02l-0.561,-0.245c-0.015,-0.007 -0.031,-0.014 -0.046,-0.021l-0.561,-0.26c-0.015,-0.007 -0.031,-0.014 -0.046,-0.022l-0.561,-0.274c-0.016,-0.008 -0.032,-0.016 -0.047,-0.024l-0.561,-0.289c-0.016,-0.009 -0.032,-0.017 -0.048,-0.026l-0.56,-0.305c-0.016,-0.009 -0.032,-0.018 -0.048,-0.027l-0.561,-0.322c-0.016,-0.01 -0.032,-0.019 -0.048,-0.029l-0.56,-0.339c-0.016,-0.01 -0.032,-0.02 -0.048,-0.03l-0.561,-0.357c-0.016,-0.011 -0.032,-0.021 -0.048,-0.032l-0.56,-0.376c-0.016,-0.011 -0.032,-0.022 -0.047,-0.033l-0.561,-0.396c-0.016,-0.011 -0.031,-0.022 -0.047,-0.033l-0.56,-0.417c-0.016,-0.011 -0.031,-0.023 -0.046,-0.035l-0.561,-0.437c-0.015,-0.012 -0.03,-0.024 -0.045,-0.036l-0.561,-0.459c-0.015,-0.012 -0.029,-0.025 -0.044,-0.037l-0.56,-0.482c-0.015,-0.012 -0.029,-0.025 -0.043,-0.038l-0.561,-0.505c-0.014,-0.013 -0.028,-0.025 -0.042,-0.038l-0.56,-0.53c-0.014,-0.013 -0.028,-0.026 -0.041,-0.039l-0.56,-0.555c-0.014,-0.013 -0.027,-0.026 -0.039,-0.039l-0.561,-0.581c-0.013,-0.013 -0.025,-0.026 -0.038,-0.039l-0.56,-0.608c-0.012,-0.013 -0.024,-0.026 -0.036,-0.039l-0.561,-0.635c-0.011,-0.013 -0.023,-0.027 -0.034,-0.04l-0.561,-0.663c-0.011,-0.013 -0.022,-0.027 -0.033,-0.04l-0.56,-0.693c-0.011,-0.013 -0.021,-0.026 -0.031,-0.039l-0.561,-0.723c-0.01,-0.012 -0.02,-0.025 -0.03,-0.039l-0.56,-0.753c-0.01,-0.013 -0.019,-0.026 -0.028,-0.039l-0.561,-0.785c-0.009,-0.012 -0.018,-0.025 -0.027,-0.038l-0.56,-0.818c-0.009,-0.012 -0.017,-0.024 -0.025,-0.037l-0.561,-0.851c-0.008,-0.012 -0.016,-0.024 -0.023,-0.037l-0.561,-0.885c-0.008,-0.012 -0.015,-0.024 -0.022,-0.036l-0.561,-0.92c-0.007,-0.011 -0.014,-0.023 -0.021,-0.035l-0.56,-0.956c-0.007,-0.011 -0.014,-0.022 -0.02,-0.034l-0.561,-0.992c-0.006,-0.011 -0.012,-0.022 -0.018,-0.033l-0.561,-1.029c-0.005,-0.011 -0.011,-0.022 -0.017,-0.033l-0.56,-1.067c-0.006,-0.01 -0.011,-0.02 -0.016,-0.031l-0.561,-1.105c-0.005,-0.011 -0.01,-0.021 -0.015,-0.031l-0.561,-1.144c-0.004,-0.01 -0.009,-0.02 -0.014,-0.03l-0.56,-1.184c-0.005,-0.009 -0.009,-0.019 -0.013,-0.028l-0.561,-1.225c-0.004,-0.009 -0.008,-0.018 -0.012,-0.027l-0.561,-1.265c-0.004,-0.009 -0.008,-0.018 -0.011,-0.027l-0.561,-1.306c-0.004,-0.009 -0.007,-0.017 -0.011,-0.025l-0.56,-1.349c-0.004,-0.008 -0.007,-0.016 -0.01,-0.024l-0.561,-1.39c-0.003,-0.008 -0.006,-0.016 -0.009,-0.023l-0.561,-1.433c-0.002,-0.008 -0.005,-0.015 -0.008,-0.023l-0.561,-1.475c-0.002,-0.007 -0.005,-0.014 -0.008,-0.021l-0.56,-1.518c-0.003,-0.007 -0.005,-0.014 -0.008,-0.021l-0.56,-1.561c-0.003,-0.007 -0.005,-0.013 -0.007,-0.02l-0.561,-1.604c-0.002,-0.006 -0.004,-0.013 -0.007,-0.019l-0.56,-1.647c-0.002,-0.006 -0.004,-0.012 -0.006,-0.018l-0.561,-1.691c-0.002,-0.005 -0.004,-0.011 -0.005,-0.017l-0.561,-1.733c-0.002,-0.006 -0.004,-0.011 -0.005,-0.017l-0.561,-1.776c-0.001,-0.005 -0.003,-0.01 -0.005,-0.015l-0.56,-1.819c-0.002,-0.005 -0.003,-0.01 -0.005,-0.015l-0.56,-1.861c-0.002,-0.004 -0.003,-0.009 -0.005,-0.014l-0.56,-1.902c-0.002,-0.005 -0.003,-0.009 -0.004,-0.014l-0.561,-1.943c-0.001,-0.005 -0.002,-0.009 -0.003,-0.013l-0.561,-1.985c-0.001,-0.004 -0.002,-0.008 -0.003,-0.012l-0.561,-2.024l-0.003,-0.011l-0.561,-2.064l-0.003,-0.01l-0.56,-2.102l-0.003,-0.01l-0.561,-2.139l-0.002,-0.01l-0.561,-2.175l-0.002,-0.009l-0.561,-2.21l-0.002,-0.009l-0.56,-2.244l-0.002,-0.008l-0.561,-2.276l-0.002,-0.008l-0.56,-2.308l-0.002,-0.006l-0.561,-2.338l-0.001,-0.006l-0.561,-2.365l-0.001,-0.006l-0.561,-2.391l-0.001,-0.006l-0.561,-2.416l-0.001,-0.004l-0.56,-2.439l-0.001,-0.004l-0.561,-2.459l-0.001,-0.004l-0.56,-2.477l-0.001,-0.003l-0.561,-2.494l-0,-0.003l-0.561,-2.507l-0.001,-0.002l-0.56,-2.52l-0.561,-2.53l-0.561,-2.536l-0.561,-2.541l-0.561,-2.541l-0.56,-2.539l-0.56,-2.535l-0.561,-2.527l-0.56,-2.518l-0.56,-2.504l-0.56,-2.488l-0.559,-2.47l-0.56,-2.447l-0.559,-2.421l-0.559,-2.394l-0.559,-2.362l-0.559,-2.327l-0.558,-2.29l-0.558,-2.249l-0.558,-2.205l-0.558,-2.157l-0.557,-2.108l-0.556,-2.054l-0.556,-1.997l-0.555,-1.938l-0.555,-1.876l-0.553,-1.81l-0.553,-1.742l-0.551,-1.671l-0.55,-1.596l-0.548,-1.519l-0.546,-1.439l-0.542,-1.356l-0.54,-1.27l-0.535,-1.181l-0.53,-1.09l-0.522,-0.995l-0.514,-0.898l-0.501,-0.796l-0.486,-0.693l-0.464,-0.587l-0.436,-0.479l-0.4,-0.371l-0.352,-0.268l-0.295,-0.175l-0.235,-0.098l-0.18,-0.045l-0.149,-0.011l-0.151,0.014l-0.186,0.05l-0.241,0.107l-0.303,0.185l-0.359,0.28l-0.404,0.384l-0.44,0.492l-0.467,0.6l-0.488,0.706l-0.503,0.809l-0.514,0.909l-0.524,1.007l-0.53,1.101l-0.536,1.192l-0.54,1.281l-0.543,1.366l-0.546,1.449l-0.549,1.528l-0.55,1.606l-0.551,1.679l-0.553,1.75l-0.553,1.818l-0.555,1.884l-0.555,1.945l-0.556,2.005l-0.557,2.061l-0.557,2.113l-0.557,2.164l-0.558,2.21l-0.558,2.254l-0.559,2.294l-0.558,2.332l-0.559,2.366l-0.56,2.397l-0.559,2.425l-0.559,2.45l-0.56,2.472l-0.56,2.49l-0.56,2.506l-0.56,2.519l-0.56,2.528l-0.561,2.536l-0.56,2.54l-0.561,2.54l-0.561,2.54l-0.56,2.535l-0.561,2.529l-0.561,2.52l-0.001,0.002l-0.561,2.506l-0,0.003l-0.561,2.492l-0.001,0.003l-0.56,2.475l-0.001,0.004l-0.561,2.457l-0.001,0.004l-0.56,2.436l-0.001,0.005l-0.561,2.413l-0.001,0.005l-0.561,2.388l-0.001,0.006l-0.561,2.362l-0.001,0.006l-0.561,2.334l-0.002,0.007l-0.56,2.304l-0.002,0.008l-0.561,2.272l-0.002,0.008l-0.56,2.24l-0.002,0.009l-0.561,2.206l-0.002,0.009l-0.561,2.171l-0.003,0.01l-0.56,2.134l-0.003,0.01l-0.561,2.098l-0.002,0.01l-0.561,2.059l-0.003,0.012l-0.561,2.019c-0.001,0.004 -0.002,0.008 -0.003,0.012l-0.561,1.98c-0.001,0.004 -0.002,0.008 -0.004,0.012l-0.56,1.939c-0.001,0.005 -0.003,0.009 -0.004,0.014l-0.561,1.897c-0.001,0.005 -0.003,0.01 -0.004,0.014l-0.561,1.856c-0.001,0.005 -0.003,0.01 -0.004,0.015l-0.561,1.814c-0.001,0.005 -0.003,0.01 -0.005,0.015l-0.56,1.771c-0.002,0.006 -0.004,0.011 -0.006,0.017l-0.56,1.728c-0.002,0.006 -0.004,0.012 -0.006,0.017l-0.56,1.686c-0.002,0.006 -0.004,0.012 -0.007,0.018l-0.56,1.642c-0.002,0.006 -0.004,0.012 -0.007,0.019l-0.56,1.599c-0.003,0.006 -0.005,0.013 -0.007,0.019l-0.561,1.556c-0.002,0.007 -0.005,0.014 -0.007,0.021l-0.561,1.513c-0.003,0.007 -0.005,0.014 -0.008,0.022l-0.561,1.47c-0.003,0.007 -0.005,0.015 -0.008,0.022l-0.561,1.428c-0.003,0.008 -0.006,0.015 -0.009,0.023l-0.561,1.385c-0.003,0.008 -0.007,0.017 -0.01,0.025l-0.561,1.343c-0.003,0.008 -0.007,0.017 -0.01,0.025l-0.561,1.302c-0.004,0.009 -0.008,0.017 -0.011,0.026l-0.561,1.261c-0.004,0.009 -0.008,0.018 -0.012,0.027l-0.561,1.22c-0.004,0.009 -0.009,0.019 -0.013,0.028l-0.561,1.18c-0.004,0.009 -0.009,0.019 -0.014,0.029l-0.561,1.14c-0.005,0.01 -0.01,0.02 -0.015,0.03l-0.56,1.101c-0.006,0.01 -0.011,0.021 -0.017,0.031l-0.56,1.063c-0.006,0.011 -0.012,0.021 -0.017,0.032l-0.561,1.025c-0.006,0.011 -0.012,0.022 -0.019,0.033l-0.56,0.988c-0.007,0.011 -0.013,0.023 -0.02,0.034l-0.561,0.952c-0.006,0.011 -0.013,0.023 -0.021,0.035l-0.56,0.916c-0.008,0.012 -0.015,0.024 -0.023,0.035l-0.56,0.882c-0.008,0.012 -0.016,0.024 -0.024,0.036l-0.561,0.847c-0.008,0.013 -0.016,0.025 -0.025,0.038l-0.56,0.813c-0.009,0.013 -0.018,0.026 -0.027,0.039l-0.561,0.781c-0.009,0.013 -0.019,0.026 -0.028,0.038l-0.561,0.75c-0.01,0.013 -0.019,0.026 -0.03,0.039l-0.56,0.719c-0.011,0.013 -0.021,0.027 -0.032,0.04l-0.56,0.689c-0.011,0.013 -0.022,0.026 -0.033,0.039l-0.561,0.66c-0.011,0.013 -0.023,0.027 -0.034,0.04l-0.561,0.631c-0.012,0.014 -0.024,0.027 -0.036,0.04l-0.561,0.604c-0.012,0.013 -0.025,0.027 -0.037,0.04l-0.561,0.577c-0.013,0.013 -0.026,0.027 -0.039,0.04l-0.561,0.551c-0.013,0.013 -0.027,0.026 -0.04,0.039l-0.561,0.527c-0.014,0.013 -0.028,0.025 -0.042,0.038l-0.561,0.502c-0.014,0.013 -0.028,0.026 -0.043,0.038l-0.56,0.479c-0.015,0.013 -0.03,0.025 -0.045,0.037l-0.56,0.457c-0.015,0.012 -0.03,0.024 -0.045,0.035l-0.561,0.435c-0.015,0.012 -0.031,0.024 -0.046,0.035l-0.561,0.414c-0.015,0.011 -0.031,0.022 -0.047,0.033l-0.56,0.394c-0.016,0.011 -0.032,0.022 -0.048,0.032l-0.56,0.374c-0.016,0.011 -0.032,0.021 -0.048,0.031l-0.56,0.356c-0.016,0.01 -0.032,0.02 -0.048,0.029l-0.561,0.338c-0.016,0.009 -0.032,0.019 -0.048,0.028l-0.561,0.32c-0.016,0.009 -0.031,0.018 -0.048,0.027l-0.56,0.303c-0.016,0.009 -0.032,0.017 -0.048,0.025l-0.56,0.288c-0.016,0.008 -0.032,0.016 -0.048,0.024l-0.56,0.272c-0.016,0.008 -0.031,0.015 -0.047,0.022l-0.56,0.258c-0.016,0.007 -0.031,0.014 -0.046,0.021l-0.561,0.244c-0.015,0.006 -0.03,0.012 -0.045,0.019l-0.561,0.23c-0.014,0.006 -0.029,0.012 -0.044,0.018l-0.56,0.218c-0.015,0.005 -0.029,0.011 -0.043,0.016l-0.561,0.206c-0.014,0.005 -0.028,0.01 -0.042,0.015l-0.561,0.194c-0.013,0.005 -0.027,0.009 -0.04,0.014l-0.561,0.183c-0.013,0.004 -0.026,0.008 -0.039,0.012l-0.561,0.173c-0.013,0.004 -0.025,0.008 -0.038,0.011l-0.561,0.163c-0.012,0.004 -0.024,0.007 -0.037,0.01l-0.56,0.154c-0.012,0.003 -0.024,0.006 -0.036,0.009l-0.56,0.144c-0.011,0.003 -0.023,0.006 -0.034,0.009l-0.561,0.135c-0.011,0.003 -0.022,0.005 -0.032,0.008l-0.561,0.127c-0.01,0.002 -0.021,0.005 -0.031,0.007l-0.561,0.119c-0.01,0.003 -0.02,0.005 -0.03,0.007l-0.56,0.112c-0.01,0.002 -0.019,0.004 -0.029,0.005l-0.56,0.106c-0.009,0.001 -0.018,0.003 -0.028,0.005l-0.56,0.098c-0.009,0.002 -0.017,0.003 -0.026,0.005l-0.561,0.092c-0.008,0.002 -0.016,0.003 -0.024,0.004l-0.561,0.087c-0.007,0.001 -0.015,0.002 -0.023,0.003l-0.561,0.081c-0.007,0.001 -0.014,0.002 -0.022,0.003l-0.56,0.076c-0.007,0.001 -0.014,0.002 -0.021,0.003l-0.561,0.071c-0.006,0.001 -0.013,0.002 -0.019,0.002l-0.561,0.067c-0.006,0 -0.012,0.001 -0.019,0.002l-0.56,0.062c-0.006,0 -0.012,0.001 -0.018,0.002l-0.561,0.057c-0.005,0.001 -0.011,0.001 -0.016,0.002l-0.561,0.054c-0.005,0 -0.01,0.001 -0.015,0.001l-0.561,0.05c-0.005,0.001 -0.01,0.001 -0.015,0.002l-0.56,0.046c-0.005,0.001 -0.01,0.001 -0.014,0.002l-0.561,0.043c-0.004,0 -0.008,0.001 -0.013,0.001l-0.56,0.041c-0.004,-0 -0.008,0 -0.013,0l-0.56,0.038l-0.012,0.001l-0.56,0.035l-0.011,0.001l-0.561,0.032l-0.01,0.001l-0.56,0.03l-0.01,0l-0.56,0.028l-0.009,0.001l-0.561,0.026l-0.008,0l-0.561,0.024l-0.007,0.001l-0.561,0.022Z" style="fill:#590;"/>
</svg>
